<?xml version="1.0" encoding="UTF-8"?>
<svg id="Layer_1" xmlns="http://www.w3.org/2000/svg" version="1.1" viewBox="0 0 1024 512">
  <!-- Generator: Adobe Illustrator 30.0.0, SVG Export Plug-In . SVG Version: 2.1.1 Build 123)  -->
  <path d="M63.8,479c-4.2-1,0-4.4,1.5-5.7,19.1-18.4,54.8-43.3,77.2-59.7s10.4-8.3,16.8-10.6c50.7.7,101.8-2.1,152.4-.4,3.2.1,6.1,1.5,9.3,1.5.3-28.4-5.1-57.4,1.8-85.3.7-2.6,3.3-4.7,3.6-6.3.6-3.4-2.4-12.5-2.5-17-.6-15.1,1.2-29.9,1.6-44.7.4-15.1-1.4-30.5,1.4-45.4l-15.8,10.8c5.4,7,15.6,19.4,11.2,28.5s-48.7,24.1-62.5,25.4c-67.6,6.1-78.3-105.1-2.7-105.1s20.5,5.8,26,5.7,26.1-13.1,28-15c2.3-2.4,7.1-14.4,11-19.3,29.7-38,91.5-54.3,137.8-47.3,45.3,6.9,69.8,26.4,105.8,49.8,40.2,26.1,74.5,39.3,71.1,97.5-.9,15.7-1.7,31.8-2.9,47.5-2.4,32.8-7,65.2-14.5,97.2.9.7,17.9-4.7,21.3-5.3,32-5.7,53.8.8,84.6,2.4,7.1.4,24.1,1.2,30.2,0,5.8-1.1,16.4-28.8,27-27.2,5,.8,8.7,8.3,12.7,10.5,2.8,1.5,5.6,1.2,9.3,3.7,10.3,6.9,24.9,32.6,33.9,36.7,7.4,3.4,24.6-1.8,34.5,3,27.3,24.2,62,43.9,88.6,68.4,1.8,1.6,4.1,2.9,3.6,5.7H63.8ZM374.2,203.8c.6.6,13.8,3,16.9,4,15.2,4.9,25.6,12.5,42,3.8,12.6-6.7,9.1-14.4,27.5-18.6,19.1-4.3,22.3,3.3,26.7-19.4,2.4-12,4-65.2-3-73.5-2.7-3.2-29.1-8.2-34.6-8.6-42.1-3.4-97.5,12.9-124.6,46.8-8.4,10.5-12.2,18.7-7.5,31.9.6,1.6,9.3,20.7,11.8,17.7-1.1-12.6-5-19.1.7-31.7,16.1-35.3,74.9-16.4,57.6,26-3.2,7.8-11.5,11.1-12.9,14.4s-1.4,6.4-.7,7.1h.1ZM561.3,139.2c-.6-1-15.7-11.3-18.1-12.9-16.1-10.5-35.4-18.8-53.7-24.8,6,29.5,6.9,60.6-2.9,89.3,6.4-1.1,20.7,12.7,24.5,10.9,13.2-14.7,26.8-29.2,38.9-44.8,2.4-3.1,12.8-15.3,11.4-17.8h-.1ZM374.2,192.3c41.5-37.8-27.6-77.4-43.2-25.9,3.7-2.6,5.5-7.6,9.3-10.1,13.5-8.8,33.2,1.2,35,17,.8,6.5-4.8,12.3-1.2,19.1h.1ZM632.1,239.8v-23.8c0-5.7-7.6-22.6-10.8-28.1-12.8-21.9-33.7-32.3-55-44.5l-53.8,64.1c-.4,7.1,18.2,32.4,23.7,38.1s12.2,11.1,13,11.5c2.9,1.2,2-2,2.1-3.6,2.9-44.1,41.1-62.3,72.6-29.4l8,15.7h.2ZM370.9,175.6c0-10.2-8.2-18.4-18.4-18.4s-18.4,8.2-18.4,18.4,8.2,18.4,18.4,18.4,18.4-8.2,18.4-18.4ZM312.2,160.6c-1.5-1.6-24.9,13.2-28.6,15.3-.3,1.2,5.8,21.2,6.9,22.7s9.1,4.4,12,6.7,4.3,7,6.1,7,16.9-10.9,17.6-11.7c5.1-5.9-1.4-8-3.7-12.1-4.6-8.1-10.4-18.3-10.3-27.9ZM278.8,173.9c-2-2.1-18.4-4.7-22-4.8-68.4-.7-61.7,100.9,2.9,96.7,11.4-.8,54.3-12.9,59-23.1s-7.6-20.6-11.6-25.8c-6.2-8-18.2-13.4-20-16-3.7-5.3-5.7-24.3-8.3-27h0ZM369.9,192.3c-4.4.3-7,4.1-11.4,5.1-11.5,2.7-18-2.3-26-9.5-4.8,38.2-4.5,76.7-4.3,115.2,3.1.4,4.4-2.8,7.1-3.7,4.2-1.4,9.7-.9,13.9.7,2.8,1.1,7,7.3,8.6,4.5,6.4-37.1,13.6-74.5,12.2-112.4h-.1ZM539.5,253.1c-9.8-6.9-18.2-19.1-24.4-29.6-7.1-11.9-5.7-19-20.4-25.7-10.8-5-31.8-3.7-42.3,1.4-4.8,2.3-7.8,9.1-12.9,13-19.2,14.7-33.8,3.8-53.8-1.2-.3,29.5-5.1,58.9-9.1,88.2-1.5,10.8-5.1,19.8-1,32.1l-8.7,72.8h181.5c-9.8-50.1-13.6-100-9-151h0ZM382.6,209.8l-8.4-3.1c-1.2,28.8-5.1,57.4-10.2,85.8-.2,4.3,4,6.4,6.6,9.3,3,.5,3-7.4,3.4-9.6,4.5-26.9,5.8-55.3,8.7-82.4h-.1ZM584.1,212.8c-21.8,3.7-26.3,26.9-28.4,45.1-5.2,46.1-1,93.7,7.8,139.1.9,4.6,5.5,29.3,8.6,29.7,8.3,1.3,34.8-16.6,38.6-24.5,9.3-47.6,22.5-101.3,18.4-150.1-2.1-25.2-18-43.9-45-39.3h0ZM551.1,261.8c-.4-.6-5.4-3.3-6.9-3.2-2.7,1.9-3.3,57.9-2.9,65.5.5,9.3,9.6,80.4,13.1,82.7s5.1-.1,7,.2c-9.1-43.6-12.9-87.2-11.6-131.9,0-3.7,2.8-10.5,1.2-13.3h.1ZM359.8,314.7c9.9,1.3,13.4-10.9,5-14.4-2.8-1.1-2.1,1.8-2.5,3.2s-3.1,10.6-2.5,11.2h0ZM353.6,318.7c9.4-10.5-16.5-22.5-21.9-11.2-6,12.4,15.2,18.7,21.9,11.2ZM369.9,316.2l-11.5,2.9c5.5,30.5-4.1,60.9-5.8,91.4,9.9,4.6,8.5-.8,9.9-8.8,3.6-19.6,7.8-44.9,8.9-64.6s.5-14.2-1.4-20.9h-.1ZM355.5,323.4c-11.4,5.1-19.1,2.4-28.8-4.3-7.4,23.5-2.9,47.4-1.5,71.3.8,14.1,0,28.4,1.5,42.4l17.2,2.9c5-37.2,13.2-74.5,11.6-112.3h0ZM761.7,379.6c3.9-1.5,11.8,6.1,13.6,5.7s14.2-19,14.6-20.2c.9-2.6-4.4-8.3-6.6-9.4-4.8-2.4-15.2,13-17.8,16.8-.9,1.4-4.9,5.8-3.8,7h0ZM779,391.1c9.9.6,18.1,9.5,17.4,19.4-.3,4.7-6.3,9.3-3,11.5,5.3,3.6,27.3,6.5,36,10.1s21.9,16.4,29.6,15.9c8-.5,3.3-7.7,1.2-12.1-8.4-17.6-24.2-29.5-37.3-43.4-4.7-5-17.8-23.2-22.3-25.2-9.5-4.4-22.9,22.2-21.6,23.8h0ZM757.2,382.7c-1.8-1.1-23.1,0-27.8-.2-26.4-1.6-52.6-7.6-79.1-4.1s-28.4,5.3-30.8,7.4c-1.2,1-3.8,14.7-3.2,15.5,23.9-12.6,48.9-15.5,75.7-14.5,8.5.3,18.8,2.5,27.3,2.9,7.7.4,31.8,2.5,37.4,1.5s2.6-.7,3.6-2.1c-1.6-1.1-2.3-5.8-3.1-6.3h0ZM773.2,391.1c-.3-2.7-10.4-8.3-11.5-7.2.4,7.2,5.2,8,11.5,7.2ZM774.6,422.7c.8-5.2-.2-26.9-5.2-28.5s-36,.3-46-.1c-20.6-.9-40.9-4.7-61.7-2.8-6.8.6-42.2,9.7-45,14.2s2,5.2,2.3,7.9c1.2,13-4.8,25.8-13,35.3l168.5-26h.1ZM788.7,418c10.2-8.2-1.7-23.3-12.5-24.1,1.8,8.7,3.8,16.9,2.9,25.9,3.2,0,6.9.3,9.7-1.9h-.1ZM315.1,406.9h-157.7l-87.2,67.7h884.5c-26.7-24.5-57.7-44.5-85.7-67.7h-23.8l16.5,23.2c4.7,6.4,9.9,20.7-1.8,22.2-8.9,1.1-19.4-9.8-26.8-13.7s-41.6-14.3-47.5-14.4c-4.7,0-14.5,3.5-20.4,4.2-37.1,4.5-72.7,11.7-109.5,17.2-19.7,3-58.6,11.6-74.7-1.2s-6.3-9-10-13-8.8-5.6-10.9-7.8c-3.6-3.7-4.6-12.9-9.6-16.7h-184c-1.4,4.9-4.9,12.3-8.2,16.4-2.4,3-8,4.9-9.1,6.7-1.9,3.3-2.1,12.3-5,16.6-.4.6-8.9,8.6-9.6,9.1-11.4,7.8-30,1.4-42.8,2.1-10.6.6-29.7,8.7-39.2-.4-8.9-8.6,11.1-13,17-14.9,16.7-5.3,35.4-10.2,53-9.7l-15-1.5c-8.7-7.6-35.2,5.5-33.3-11.5l41.1-12.9h-.3ZM575.9,430c1.8,8.2,13.3,16.7,21.3,17,12.4.5,21.2-30.1,16.1-40.1-10.8,10.9-22.3,19.2-37.4,23.1h0ZM279.1,424.2c1.8,1.5,19,.4,22-.3,5.5-1.2,11.9-7.4,18.7-7.2,2.4-.7,3-2.5,2.5-4.7s-2.6-1.3-3.9-1.1c-9.8,1.6-27.7,6.8-37.3,10.3s-4.5,1-2,3h0ZM322.3,427.1c.6-.6.3-6.6-2.1-6.9-2.2-.3-18.5,5.9-10.2,7s11.8.4,12.3,0h0ZM293.7,440.3c-1.4,2.3.4,12.5,3.7,13.9,5.6,2.5,36.4,2.4,36.4-3.3-4.1-1.6-8.8-12.7-11-13.5-3.4-1.1-27.9.9-29.1,2.8h0ZM328.1,437.2c2.9,6.9,8.6,12.7,14.4,5,0-2.3-11.8-5.3-14.4-5ZM289.2,441.5c-2.9.3-36.8,10.2-34.6,12.9,12.3,5.8,23.5.8,36,0l-1.5-13h.1Z"/>
  <path d="M591.7,68.4c1.8.2,2.4,2,3.1,3.3,5.6,10.3,11.9,25.4,16.8,36.5,1,2.3,3.8,6.8,2.4,9.2l-49.7-11.6c3.4-6.6,12.7-6.3,15.8-12.9-52.7-37.1-113.9-56.4-178.7-44-8.1,1.5-32.4,10.9-36.8,10.8s-4.7-4.3-1.2-7c4.8-3.6,30.5-10,37.7-11.3,65.1-12.2,130.2,7,182.8,45.5,4.4.4,7.8-14.9,7.7-18.6h.1Z"/>
  <path d="M248.9,114.5c.3,2.7-1.5,4.5-2.9,6.5-8,11.3-19.6,22.6-28.1,33.9l-2.9-18.7c-21.6,13.2-39.4,40.4-42.3,65.7-.8,7.3,3,19.7-5.2,22.1-6.5-1.5-1.6-27.9-.3-33.4,5.8-25.5,24-48.4,45.6-62.4-1.3-2-15-13.3-12.9-15.1l49,1.4h0Z"/>
  <path d="M256.1,310.4c2.1-1.9-7.5-15.2-5-18.7,11.9,7.9,30.5,11.1,42.1,18.4,1.5.9,2.5,0,1.8,3.2l-43.2,24.5,4.3-20.2c-27,.1-53-13.8-69.9-34.6-2.1-2.6-11.9-14.6-2.8-14.5s6.7,8,9.3,10.9c16.8,18.3,37.7,30.7,63.4,30.9h0Z"/>
  <path d="M283.4,203.8c-1.5,1.6-7.4-5.7-10-6.5-5.9-1.8-16.7-.7-18.2,6.4s5.5,6.2,5.1,10.2c-9.1.2-11.7-10.9-5.8-16.6,12.2-12,33.4,1.6,28.9,6.6h0Z"/>
</svg>