<?xml version="1.0" encoding="UTF-8"?>
<svg id="Layer_1" xmlns="http://www.w3.org/2000/svg" version="1.1" viewBox="0 0 1024 512">
  <!-- Generator: Adobe Illustrator 30.0.0, SVG Export Plug-In . SVG Version: 2.1.1 Build 123)  -->
  <path d="M302.7,425.9c-3.1-25.3-11.2-52.9-8.6-78.5s3.9-11.2,3.9-14.1c-.1-12.2-3.6-30.1-4-43.4-.4-14.8,1.9-33.3.7-47.1-1-12.1-8.3-26.7-9.3-40.9-.6-9.1,3-21.9,2.5-27.2-.5-5.6-16.8-27.9-19-35.7-4.7-3.6-28,8.4-30.9-12.2-3.7-26.5,6.5-81.7,31.6-96.3,51.4-30,112.3,32.7,68.4,82.8-2.8,3.2-14.7,11.5-15,12.5-.5,1.6,4.3,13.4,5.6,14.2s11.9,1.7,15.9,2.9c47.5,13.6,66.9,66,117.1,71,34-14.7,64.3-30.4,101.4-14.4,23.8,10.2,40.7,35.4,40.8,61.5,0,9.9-1.5,19.8-1.4,31.6.3,37.1-5.2,72.5-11.6,108.8,11.4-.8,22.3-5,33.8-5.8,21.7-1.5,43.2,3.6,64.8,4.4s22.8,1.1,28.8,0,11.3-16.4,16-21.4,8.3-7.2,9.7-7.1c4.7.4,16.4,12.4,19.8,16.4,1.1,1.3,1.3,3.5,1.4,3.6.5.4,4.1-4.8,12.2,0,10.4,6.2,24,30,32.4,33.8s41.1-2.4,53.2,1.5c25.3,20.7,57.3,38.3,82,59.1,2,1.7,4.8,3.3,4.4,6.4H75.1c-.4-3.2,2.5-4.6,4.5-6.3,24.2-21.4,58.5-39.3,84.1-59.9h139ZM285.1,28.7c-15.5,2.9-26.7,15.7-32.4,29.5-6.2,15.1-13.5,54.5-10.1,69.9,2.6,12,29.6,6,38.3,2.9,6.7-2.4,13.4-11.2,18.4-12,5.4-.8,13.3,2.9,18.7,2.9,10.7,0,23.2-18.8,26.7-28.1,15.2-41.1-18.9-72.8-59.5-65.3ZM324.3,142.1c.6-.6-5-14.4-5.8-15.1-1.4-1.2-14.4-3.8-16.6-3.7-6.7.2-17.9,15.3-28,13,4,11.7,9.7,22.8,16.6,33.1,9.4-10.6,19.5-24.1,33.9-27.4ZM338.9,283.2c.4.5,10.4,3.1,12.1,3.1,5.2,0,13.7-3.3,18.4-2.7s11.2,8,17.7,4.1,19.4-23.9,23-30.3,17.8-39.5,16.6-48.2-2.6-4.1-4.3-5.8c-24.4-16.1-43.4-43.8-71.3-54-20-7.3-26.8-6.7-43.2,7.3-16.5,14.1-20,26.7-18,48.2l5.7,23.8c0-8.1,4-19.4,4.2-26.8.3-10.6-4.7-17.6,3-28.7,21.2-30.4,75.4,5.1,53.1,40.1s-10.2,9.1-11,12c-1.8,6.2-.9,19.9-1.7,27.1s-5.3,29.6-4.2,30.9ZM344.5,218.5c32.1-23.5-8-71.6-36-44.7,9.5-3.4,17.8-4.8,26.7,1.4,17.1,12.2,4.6,27.1,9.4,43.2ZM316.7,175.6c-25.3,5.2-11.9,46,13.2,34.8,19.7-8.8,9.6-39.5-13.2-34.8ZM599.5,266c.9-29.8-15.8-55-43.9-64.9-32.9-11.6-59.1,3.4-89.1,14.7l-2.2,2.1c1.8,11.8-3.3,75.6.5,81.3.4.6,1.1.8,1.7,1.2,4.6,2.8,36.7,5.3,42.9,4.4,13.6-2,6.8-12.1,7.2-21.9,1.6-44.3,38.4-65,72.9-34.8l10.1,18ZM338.7,209.8c-11.7,11-25.5,8.1-36-2.9-6.8,38.6-3.8,77.8-2.9,116.7,1.1,1.2,13.1-9.5,24.5-.7,2.4,1.8,2,4.7,4.3,5,4.2-39.1,13.7-78.6,10.1-118.1ZM459.7,300.6v-81.4c-8.2-3-17.5-6.1-26.3-8.3-1.3-.3-2.1-1.9-3.3.3s-2,11.5-3.2,15.6c-7.2,24-18.4,45.4-36.4,63,2.8,2.9,6.7,4.1,10.4,5.4,4.4,1.6,19.5,5.4,23.5,5.4h35.3ZM554.5,239c-18.5,2.3-28,14.8-31.2,32.2-8.5,47.1-.3,122.4,12.3,168.8.8,2.8,3.2,13.9,5.6,14.5,13.4-3.6,35.1-13.4,40.2-27.2,4-11,7.1-35.8,9.1-48.5,5.4-34.1,25.6-147.4-36.1-139.8ZM344.5,317.9l2.5-26.7c-14.6-11.7-7.9,13.3-12.1,21.8l9.6,4.9ZM348.8,425.9h165.7c-8.7-38.4-11.5-77.1-10.2-116.6-8.2-2.1-16.8-.8-24.9-1.7-10.3-1.1-15-2.4-26-2.6-32.6-.6-42.8-3.1-72.9-12.2-8.8-2.7-17.8-7.5-27.7-2.2-4,2.1-2.2,17.3-2.7,22.2-1.7,19.6,1,27.6,1.7,46.2.6,16.8-.8,37.7-1.4,54.9-.1,4.1-2,8-1.5,12.2ZM515.9,307.8c-7-.6-8-.5-8.6,6.5-1.6,16.9,1,44.6,2.9,61.9,1.7,15.3,5.2,43.2,10.8,56.9,2.1,5.1,4.2,4.6,9.4,4.3-8.8-42.6-15.4-85.9-14.4-129.6ZM334.5,319.3c-.5.4-3.8,12.8-.8,12.9s6.6-3.6,7.3-4.2c6.3-6.4-4.7-9.9-6.5-8.7ZM311,323.9c-17.6,2.3-7.6,25.8,10.5,17.7,11.5-5.1,1.8-19.3-10.5-17.7ZM344.5,332.3l-14.4,4.3c1.8,6.9,3.4,14,4.1,21.1.6,5.8,1.5,14.2,1.7,19.9.3,8.2-3.5,52.6-.2,54.9,2,1.4,6.2.4,8.7.6,1-33.5,5.4-67.6,0-100.8ZM327.2,342.4c-9,7.4-19.1,6.5-27.3-1.4-4.2,33.9,4.7,69.4,9.9,103.2.5,3.1-.5,7.2.4,9.7,1.2,3.7,14.6,4.2,18.5,3.7.1-3.6,1.3-7,1.6-10.7,1.3-20.6,2.5-50.3,1.4-70.7-.6-10.9-3-22.9-4.4-33.8ZM726.2,400c5.3.9,12.2,4.2,14.7,9s1,10.4,6.2,7.7c3.7-1.9,10-18.9,16.3-21.8-2.6-4.1-15.1-19-19.2-19-4.5,0-19.6,21.8-18,24ZM768,448.9c12.3,3.1,26.6,5.1,38.2,10.1,5.4,2.3,31.4,22.6,33.6,10.6.6-3.6-13.1-22.8-16.3-26.5-4.9-5.6-11.2-9.5-15.9-14.4-4.7-4.8-30.7-33.7-33.4-34.4-2.4-.7-5.3.1-7.2,1.7s-13.4,17.2-13.4,19c0,3.9,9,4.8,12.3,7.9,10.4,9.6,1.1,24.8,2.1,25.9ZM723.4,417.3c.4-3.3-2.1-13.4-5.3-14.2-31.7,4.8-64.6-5.5-96.3-3-4.1.3-30.7,5.7-32.2,7.4-.7.8-3.8,19.2-3.1,19.9,44.3-22.1,89.8-11.5,136.8-10.1ZM739.2,417.3c-1-7.6-6.7-12.8-14.4-12.9,1.4,2,2.5,12.4,2.9,12.9.7.7,9.2-.4,11.5,0ZM744.7,421.8c-19.8-.3-39.7-.8-59.5-1.7-15.5-.7-30.2-4-46.1-2.8-7.2.5-47.5,10-50.5,14.3-.9,1.3,1.3,15.7.5,20.6-1.5,9.1-7.6,16-11.2,24.1l169-26.1c5.4-1.7.4-23.9-2.2-28.4ZM763.3,426.4c-1.9-2-12-6.2-14-4.7,4.1,7.6,4.4,17.3,4.3,25.9,12,1.5,17.1-13.1,9.6-21.2ZM853.7,428.8c-10.6-1-23.7,0-34.6,0s-2.9,2.1-1.5,2.9c6.9,5.6,40.5,43.3,18.6,46.1s-23.8-11.7-33.3-15.5c-10.1-4-22.4-5.7-32.9-8.9-2.5-.8-6.3-3.9-7.1-3.9-2.3-.1-13,4.7-15.9,5.2-12.5,2.1-26.8,2.6-39.8,4.8-40.8,6.8-106.6,25.1-145.8,18.2-15.3-2.7-20.2-21.7-34.5-27.4l-13.3-21.3c-23.5-1.9-47.1,1.3-70.4,1.3-4.1,0-7.7-1.6-11.4-1.6-23.3,0-56-2.6-77.9,0-8.9,1-6.2,12-10,17.3s-8.7,5-10,7.3c-1.8,3.1-2,12.2-4,16.2-6.6,8.3-8.8,12.7-20.5,14-10.4,1.1-22.3-1.5-31.7-1.2s-16.9,4.1-24.5,4.2c-7,0-28-4.7-17.3-13.1s43.8-14.2,56.9-15.8c.4-2.5-2.6-1.1-4.3-2.3s-1.2-3.2-2.5-3.5c-2.7-.7-33.8,2.7-28.6-7.2,2.8-5.3,39.2-11,46.9-13l-1.4-2.2c-45.7-2.6-90.9,1.6-136.1-.6l-82.9,59h149.2c229.1,6,463.6-7.8,692.9,0,4.7.2,8.9,1.8,13.6,1.5.7-2.8-1-2.8-2.4-4.1-15-13.7-52.1-40.4-69.7-51.3-4.4-2.7-8.4-4.7-13.6-5.1ZM544.7,457.6c4.2,8.9,12.2,16.6,22.5,17.2,12.6.8,20.4-27.5,17.6-37.9s-8.8,4.8-10.6,6.3c-8.7,6.7-18.7,12-29.5,14.5ZM304.2,436c-1.4-1.5-34.4,7.5-39.6,8.7-2.2.5-2.5-1-2.2,2.8,14.2,3.8,23.4,0,36-5.1,1.6-.7,5.4-.5,5.7-.8s.3-5.5,0-5.7ZM341.6,437.4c-.3-.3-5.6.1-7.2-1.4v11.5c4.2.9,9.2-8,7.2-10.1ZM305.6,444.6c-.7-.8-10,4.1-11.6,5.1-1.9,1.1-3.6-.3-2.8,3.6h14.4s0-8.6,0-8.6ZM290.9,460.9c-2.6.3-12.3,2.2-13.5,3.9s1,12.4,3.7,13.7c4.2,2.1,40.5,1.5,40.3-4.3-4.6-1.1-11.9-12.8-13.9-13.5-3.2-1.1-12.8-.3-16.7.2ZM327.2,461.9l-13-1.4c3.3,7.3,11.5,13.3,13,1.4ZM272.5,464.8c-9.3,3.9-24.6,6-32.7,11.2-6.9,4.4,10.1,6.3,13.3,6.2s18.7-2.3,20.9-3.7c2.8-1.9-1.5-10.6-1.5-13.7Z"/>
  <path d="M673,290.5c.8.9,15-6.7,18-7.2,2.2-.3,2.5,0,2.1,2.2-8.5,12.9-11.3,32.1-18.4,45-.9,1.7,0,2.4-3.2,1.8l-25.9-45.4c3.5-2.8,18.7,5.1,20.2,3.6-5.2-88.3-78-161-167.1-162.8-1-7.8,2.7-7.6,9.3-7.2,87.2,5.5,162.1,82.9,165,170Z"/>
  <path d="M449.7,328l41.8,7.2-30.2,31.7c-.7-3.8,1.5-14.6-1.4-16.7-27.2,6.2-56.7-.3-78.5-17.9-3.1-2.5-17.7-16.6-15.2-20.1s4.5-1.6,5.7-.8,8.6,10.5,11.5,13.1c16.5,14.5,39.3,22.4,61.3,20.9,2.7-.2,10.3-1.1,12.2-2.2s.6-1.8,0-2.9c-1.1-2.2-8.4-10.8-7.2-12.2Z"/>
</svg>