<?xml version="1.0" encoding="UTF-8"?>
<svg id="Layer_1" xmlns="http://www.w3.org/2000/svg" version="1.1" viewBox="0 0 2048 512">
  <!-- Generator: Adobe Illustrator 30.0.0, SVG Export Plug-In . SVG Version: 2.1.1 Build 123)  -->
  <g>
    <path d="M86.9,475.4c-3.9-1,.1-4.1,1.4-5.3,17.8-17.2,51.2-40.5,72.1-55.8,5-3.6,9.8-7.7,15.7-9.9,47.4.7,95.1-2,142.4-.4,3,.1,5.7,1.4,8.7,1.4.3-26.5-4.7-53.7,1.7-79.7.6-2.5,3.1-4.4,3.3-5.9.5-3.2-2.2-11.7-2.4-15.9-.5-14.1,1.1-27.9,1.5-41.7.3-14.1-1.3-28.5,1.3-42.4l-14.8,10.1c5.1,6.6,14.6,18.1,10.4,26.6-5.9,11.9-45.5,22.5-58.4,23.7-63.1,5.7-73.1-98.2-2.5-98.2,7.5,0,19.2,5.4,24.3,5.4s24.4-12.2,26.2-14c2.2-2.2,6.6-13.4,10.2-18,27.8-35.5,85.5-50.7,128.7-44.2,42.3,6.4,65.2,24.7,98.8,46.5,37.5,24.4,69.6,36.7,66.5,91.1-.8,14.6-1.6,29.8-2.7,44.4-2.2,30.6-6.5,60.9-13.5,90.8.8.6,16.7-4.4,19.9-5,29.9-5.3,50.3.8,79,2.3,6.7.3,22.5,1.1,28.3,0,5.4-1,15.3-26.9,25.3-25.4s8.1,7.8,11.8,9.8,5.2,1.1,8.7,3.4c9.6,6.5,23.2,30.5,31.6,34.3s23-1.6,32.2,2.8c25.5,22.6,58,41,82.8,63.9,1.6,1.5,3.8,2.7,3.4,5.3H86.9ZM377,218.3c.6.6,12.9,2.8,15.8,3.7,14.2,4.6,23.9,11.7,39.2,3.6,11.8-6.2,8.5-13.5,25.7-17.4,17.8-4,20.8,3.1,25-18.1,2.2-11.2,3.7-60.9-2.8-68.7-2.5-3-27.2-7.7-32.3-8.1-39.4-3.2-91.1,12-116.4,43.8-7.8,9.9-11.4,17.5-7,29.8.5,1.5,8.6,19.4,11,16.6-1-11.8-4.7-17.9.7-29.6,15.1-33,70-15.3,53.9,24.2s-10.7,10.4-12.1,13.5-1.3,6-.7,6.7ZM551.7,158c-.5-.9-14.6-10.6-16.9-12-15.1-9.8-33.1-17.6-50.2-23.1,5.6,27.5,6.5,56.6-2.7,83.4,6-1,19.4,11.9,22.8,10.2,12.3-13.7,25-27.3,36.3-41.8,2.2-2.9,12-14.3,10.6-16.6ZM377,207.6c38.8-35.3-25.8-72.3-40.4-24.2,3.5-2.4,5.1-7.1,8.7-9.4,12.6-8.2,31,1.1,32.7,15.8.7,6.1-4.5,11.5-1.1,17.8ZM617.9,252v-22.2c0-5.3-7.1-21.2-10.1-26.3-12-20.5-31.5-30.1-51.4-41.6l-50.2,59.9c-.4,6.6,17,30.2,22.2,35.6,1.3,1.4,11.4,10.4,12.2,10.7,2.7,1.1,1.9-1.9,2-3.3,2.7-41.2,38.4-58.2,67.8-27.5l7.5,14.7ZM373.9,191.9c0-9.5-7.7-17.2-17.2-17.2s-17.2,7.7-17.2,17.2,7.7,17.2,17.2,17.2,17.2-7.7,17.2-17.2ZM319.1,178c-1.4-1.5-23.3,12.4-26.7,14.3-.2,1.1,5.4,19.8,6.4,21.2s8.5,4.1,11.2,6.3,4.1,6.5,5.7,6.5,15.8-10.2,16.4-10.9c4.8-5.5-1.3-7.5-3.4-11.3-4.3-7.6-9.7-17.1-9.6-26ZM287.8,190.4c-1.9-1.9-17.1-4.4-20.6-4.5-63.9-.7-57.6,94.3,2.7,90.3,10.6-.7,50.7-12,55.1-21.6,2.6-5.7-7.1-19.2-10.9-24.1-5.8-7.5-17-12.5-18.7-15-3.4-5-5.3-22.7-7.8-25.2ZM372.9,207.6c-4.1.3-6.6,3.8-10.7,4.8-10.7,2.5-16.8-2.2-24.3-8.8-4.5,35.7-4.2,71.7-4,107.7,2.9.4,4.1-2.6,6.6-3.4,4-1.3,9.1-.9,13,.6,2.6,1,6.6,6.8,8,4.2,6-34.7,12.7-69.6,11.4-105ZM531.4,264.4c-9.2-6.5-17-17.9-22.8-27.6s-5.3-17.7-19-24c-10.1-4.6-29.7-3.5-39.6,1.3s-7.3,8.5-12.1,12.2c-18,13.7-31.6,3.5-50.2-1.1-.3,27.6-4.7,55.1-8.5,82.4-1.4,10.1-4.7,18.5-.9,30l-8.1,68h169.6c-9.1-46.8-12.7-93.4-8.4-141ZM384.8,223.9l-7.9-2.9c-1.1,27-4.8,53.6-9.5,80.2-.2,4.1,3.8,6,6.1,8.7,2.8.4,2.8-6.9,3.2-8.9,4.2-25.1,5.5-51.7,8.1-77ZM573.1,226.7c-20.3,3.4-24.6,25.1-26.6,42.1-4.9,43.1-1,87.5,7.3,129.9s5.1,27.3,8.1,27.8c7.8,1.2,32.5-15.5,36-22.9,8.7-44.5,21-94.7,17.2-140.2-2-23.6-16.8-41-42.1-36.7ZM542.2,272.5c-.4-.6-5.1-3.1-6.4-3-2.5,1.8-3.1,54.1-2.7,61.2s9,75.1,12.3,77.2,4.7-.1,6.5.2c-8.5-40.7-12-81.5-10.8-123.2,0-3.5,2.7-9.8,1.1-12.4ZM363.5,322c9.3,1.2,12.5-10.2,4.7-13.4-2.6-1.1-1.9,1.6-2.4,3s-2.9,9.9-2.3,10.5ZM357.7,325.7c8.8-9.8-15.4-21-20.5-10.4-5.6,11.6,14.2,17.5,20.5,10.4ZM372.9,323.3l-10.8,2.7c5.1,28.5-3.9,56.9-5.5,85.4,9.2,4.3,7.9-.7,9.3-8.2,3.4-18.3,7.3-42,8.3-60.4.3-6.5.5-13.3-1.4-19.5ZM359.4,330.1c-10.6,4.8-17.8,2.2-26.9-4-6.9,22-2.7,44.3-1.4,66.6.8,13.1,0,26.5,1.4,39.6l16,2.7c4.7-34.8,12.3-69.6,10.8-104.9ZM739,382.5c3.7-1.4,11.1,5.7,12.7,5.4s13.2-17.8,13.6-18.9c.8-2.5-4.1-7.7-6.2-8.7-4.5-2.2-14.2,12.2-16.6,15.7s-4.6,5.4-3.5,6.6ZM755.2,393.3c9.3.6,16.9,8.9,16.2,18.2-.3,4.4-5.8,8.7-2.8,10.8,5,3.3,25.5,6,33.6,9.5,7.9,3.3,20.5,15.3,27.6,14.9,7.5-.5,3.1-7.2,1.1-11.3-7.8-16.5-22.6-27.6-34.8-40.5-4.4-4.6-16.6-21.6-20.9-23.6-8.8-4.1-21.4,20.8-20.2,22.2ZM734.8,385.5c-1.6-1-21.6,0-26-.2-24.7-1.5-49.1-7.1-73.9-3.9s-26.5,5-28.8,6.9c-1.1.9-3.6,13.7-3,14.5,22.3-11.8,45.7-14.5,70.7-13.5,7.9.3,17.6,2.3,25.5,2.7,7.2.4,29.7,2.3,35,1.4,1.6-.3,2.4-.7,3.3-2-1.5-1-2.2-5.4-2.9-5.8ZM749.8,393.3c-.3-2.6-9.8-7.7-10.8-6.7.4,6.8,4.9,7.5,10.8,6.7ZM751,422.9c.7-4.8-.2-25.1-4.8-26.7s-33.7.3-42.9-.1c-19.2-.8-38.2-4.4-57.6-2.6s-39.4,9.1-42,13.3,1.9,4.8,2.2,7.4c1.2,12.1-4.5,24.1-12.2,33l157.4-24.3ZM764.2,418.5c9.6-7.7-1.6-21.8-11.7-22.5,1.7,8.1,3.6,15.8,2.7,24.2,3,0,6.5.3,9-1.8ZM321.8,408.1h-147.4l-81.4,63.3h826.4c-25-22.8-53.9-41.6-80.1-63.3h-22.2l15.4,21.6c4.4,6,9.3,19.4-1.7,20.7-8.3,1-18.1-9.2-25.1-12.8s-38.9-13.4-44.4-13.5c-4.4,0-13.5,3.3-19.1,3.9-34.7,4.2-68,11-102.4,16.1-18.4,2.8-54.8,10.8-69.8-1.1s-5.9-8.4-9.4-12.2-8.2-5.3-10.2-7.2c-3.4-3.4-4.3-12.1-9-15.6h-171.9c-1.3,4.6-4.6,11.5-7.7,15.3s-7.5,4.5-8.5,6.3c-1.8,3.1-2,11.5-4.7,15.5-.3.5-8.3,8-9,8.5-10.7,7.3-28,1.3-40,2-9.9.6-27.8,8.2-36.6-.4-8.3-8,10.4-12.1,15.9-13.9,15.6-5,33.1-9.5,49.5-9.1l-14.1-1.4c-8.2-7.1-32.9,5.1-31.1-10.7l38.4-12.1ZM565.4,429.7c1.6,7.6,12.5,15.6,19.9,15.9,11.6.5,19.8-28.1,15.1-37.4-10.1,10.2-20.9,17.9-35,21.6ZM288.1,424.3c1.7,1.4,17.7.3,20.6-.3,5.1-1.1,11.1-6.9,17.5-6.7,2.2-.6,2.8-2.4,2.3-4.4s-2.5-1.2-3.7-1c-9.2,1.5-25.9,6.4-34.8,9.6s-4.2.9-1.9,2.8ZM328.5,427c.5-.5.2-6.1-2-6.5-2.1-.3-17.3,5.5-9.5,6.5,1.7.2,11.1.4,11.5,0ZM301.7,439.3c-1.3,2.1.4,11.6,3.4,13,5.2,2.3,34,2.2,34-3.1-3.8-1.5-8.2-11.9-10.3-12.6-3.2-1-26.1.9-27.2,2.7ZM333.9,436.4c2.7,6.5,8,11.9,13.4,4.7,0-2.1-11-4.9-13.4-4.7ZM297.5,440.4c-2.7.3-34.3,9.5-32.3,12.1,11.5,5.5,21.9.7,33.7,0l-1.4-12.1Z"/>
    <path d="M580.2,91.8c1.7.1,2.3,1.8,2.9,3.1,5.2,9.6,11.1,23.7,15.7,34.1,1,2.2,3.6,6.3,2.2,8.6l-46.4-10.8c3.2-6.1,11.9-5.9,14.8-12.1-49.2-34.7-106.5-52.7-166.9-41.1-7.6,1.4-30.3,10.2-34.4,10.1s-4.4-4-1.1-6.5,28.5-9.3,35.2-10.6c60.8-11.4,121.7,6.6,170.8,42.6,4.1.4,7.3-13.9,7.2-17.4Z"/>
    <path d="M259.8,134.9c.3,2.5-1.4,4.2-2.7,6-7.5,10.6-18.3,21.1-26.2,31.6l-2.7-17.5c-20.2,12.3-36.9,37.8-39.5,61.4-.8,6.8,2.8,18.4-4.8,20.7-6.1-1.4-1.5-26.1-.3-31.2,5.4-23.9,22.4-45.2,42.6-58.3-1.2-1.9-14-12.4-12.1-14.1l45.7,1.3Z"/>
    <path d="M266.6,317.9c1.9-1.8-7-14.2-4.7-17.5,11.2,7.3,28.5,10.3,39.3,17.2s2.4,0,1.7,3l-40.4,22.9,4-18.8c-25.2.1-49.5-12.9-65.3-32.3-2-2.4-11.1-13.7-2.6-13.5,2.7,0,6.2,7.5,8.7,10.2,15.7,17.1,35.3,28.7,59.2,28.9Z"/>
    <path d="M292.1,218.3c-1.4,1.5-6.9-5.4-9.3-6.1-5.5-1.7-15.6-.6-17,6s5.2,5.8,4.8,9.5c-8.5.2-10.9-10.2-5.5-15.6,11.4-11.2,31.2,1.5,27,6.1Z"/>
  </g>
  <g>
    <path d="M1339.5,414.2c-2.9-23.7-10.5-49.4-8.1-73.3s3.7-10.5,3.7-13.2c-.1-11.4-3.4-28.2-3.7-40.6-.4-13.8,1.8-31.1.6-44s-7.8-25-8.7-38.2c-.6-8.5,2.8-20.5,2.3-25.4-.5-5.2-15.7-26.1-17.7-33.3-4.4-3.4-26.2,7.8-28.9-11.4-3.5-24.7,6.1-76.3,29.6-90,48.1-28,104.9,30.6,63.9,77.3-2.6,3-13.8,10.8-14,11.6-.4,1.5,4,12.5,5.2,13.3s11.1,1.6,14.8,2.7c44.4,12.7,62.5,61.6,109.4,66.3,31.7-13.8,60-28.4,94.7-13.4,22.2,9.6,38.1,33.1,38.2,57.5,0,9.2-1.4,18.5-1.3,29.5.3,34.6-4.9,67.7-10.8,101.7,10.7-.8,20.8-4.7,31.6-5.4,20.3-1.4,40.4,3.3,60.6,4.1,6.5.3,21.3,1,26.9,0,4.4-.9,10.5-15.3,15-20s7.8-6.8,9-6.7c4.4.4,15.3,11.6,18.5,15.3s1.2,3.2,1.3,3.3c.5.4,3.8-4.5,11.4,0,9.7,5.8,22.4,28,30.3,31.6,9,4.1,38.4-2.2,49.7,1.4,23.7,19.4,53.5,35.8,76.7,55.2s4.5,3.1,4.2,5.9h-817c-.4-3,2.3-4.3,4.2-5.9,22.7-20,54.7-36.8,78.6-56h129.9ZM1323,43c-14.5,2.7-24.9,14.6-30.3,27.6-5.8,14.1-12.6,51-9.5,65.3,2.5,11.2,27.7,5.6,35.8,2.7,6.3-2.2,12.5-10.5,17.2-11.2s12.4,2.7,17.4,2.7c10,0,21.7-17.5,24.9-26.2,14.2-38.4-17.6-68-55.6-61ZM1359.7,149c.5-.6-4.7-13.5-5.4-14.1-1.3-1.1-13.4-3.5-15.5-3.5-6.2.2-16.8,14.3-26.2,12.2,3.7,11,9.1,21.3,15.5,30.9,8.8-9.9,18.2-22.5,31.6-25.6ZM1373.3,280.8c.4.4,9.7,2.9,11.3,2.9,4.9,0,12.8-3.1,17.2-2.5s10.4,7.4,16.5,3.8,18.2-22.4,21.5-28.3c4.5-8.1,16.6-36.9,15.5-45s-2.4-3.8-4.1-5.5c-22.8-15-40.6-41-66.6-50.5-18.7-6.8-25.1-6.2-40.4,6.8-15.4,13.2-18.7,24.9-16.8,45l5.3,22.2c0-7.6,3.7-18.1,3.9-25,.3-9.9-4.4-16.5,2.8-26.8,19.9-28.4,70.5,4.8,49.6,37.5-2.2,3.5-9.5,8.5-10.3,11.3-1.7,5.8-.8,18.6-1.6,25.3s-4.9,27.7-3.9,28.8ZM1378.5,220.4c30-22-7.4-66.9-33.7-41.7,8.9-3.2,16.7-4.5,24.9,1.4,16,11.4,4.3,25.3,8.8,40.4ZM1352.6,180.3c-23.7,4.9-11.1,43,12.3,32.5,18.4-8.2,8.9-36.9-12.3-32.5ZM1616.7,264.8c.9-27.8-14.7-51.4-41-60.6-30.7-10.8-55.2,3.2-83.3,13.8l-2.1,2c1.7,11-3,70.6.4,75.9.4.6,1,.7,1.6,1.1,4.3,2.6,34.3,5,40,4.1,12.7-1.9,6.4-11.4,6.7-20.5,1.5-41.4,35.9-60.7,68.1-32.5l9.4,16.8ZM1373.1,212.3c-11,10.3-23.8,7.6-33.6-2.7-6.4,36-3.5,72.7-2.7,109,1,1.1,12.2-8.9,22.8-.6,2.2,1.7,1.9,4.4,4.1,4.7,4-36.6,12.8-73.5,9.4-110.4ZM1486.2,297.1v-76c-7.6-2.8-16.4-5.7-24.6-7.8s-1.9-1.8-3.1.3-1.8,10.8-3,14.5c-6.7,22.4-17.2,42.4-34,58.9,2.6,2.7,6.3,3.9,9.7,5.1s18.2,5,21.9,5h33ZM1574.7,239.6c-17.3,2.1-26.2,13.8-29.1,30.1-7.9,44-.3,114.4,11.5,157.8.7,2.7,3,13,5.3,13.6,12.5-3.3,32.8-12.5,37.6-25.4,3.8-10.3,6.7-33.5,8.5-45.3,5-31.9,23.9-137.7-33.8-130.7ZM1378.5,313.3l2.3-25c-13.6-11-7.3,12.4-11.3,20.4l9,4.6ZM1382.6,414.2h154.8c-8.1-35.9-10.8-72.1-9.5-108.9-7.6-2-15.7-.8-23.3-1.6-9.7-1-14-2.3-24.3-2.5-30.4-.6-40-2.9-68.1-11.4-8.2-2.5-16.6-7-25.8-2.1-3.7,2-2.1,16.1-2.5,20.7-1.6,18.3,1,25.8,1.5,43.2s-.8,35.2-1.3,51.3-1.9,7.5-1.4,11.4ZM1538.7,303.8c-6.5-.6-7.5-.5-8.1,6-1.5,15.8.9,41.6,2.7,57.9s4.9,40.3,10.1,53.2,3.9,4.3,8.7,4c-8.2-39.8-14.4-80.3-13.4-121.1ZM1369.1,314.6c-.5.4-3.6,12-.7,12.1s6.2-3.4,6.8-3.9c5.9-6-4.4-9.3-6.1-8.1ZM1347.2,318.9c-16.5,2.2-7.1,24.1,9.8,16.5s1.7-18-9.8-16.5ZM1378.5,326.7l-13.5,4c1.7,6.4,3.1,13.1,3.9,19.7s1.4,13.3,1.6,18.6c.3,7.7-3.3,49.1-.1,51.3,1.8,1.3,5.8.4,8.2.6.9-31.3,5-63.1,0-94.2ZM1362.3,336.1c-8.4,6.9-17.9,6.1-25.5-1.3-3.9,31.6,4.4,64.9,9.2,96.4.4,2.9-.4,6.8.3,9.1,1.2,3.5,13.7,3.9,17.3,3.5.1-3.4,1.3-6.6,1.5-10,1.3-19.3,2.3-47,1.3-66.1-.5-10.2-2.8-21.4-4.1-31.6ZM1735.2,390c5,.9,11.4,3.9,13.8,8.5s1,9.7,5.8,7.2c3.4-1.8,9.3-17.7,15.2-20.3-2.4-3.8-14.1-17.7-17.9-17.7-4.2,0-18.4,20.4-16.8,22.4ZM1774.2,435.7c11.4,2.9,24.9,4.8,35.7,9.4s29.4,21.1,31.4,9.9c.6-3.4-12.3-21.3-15.3-24.7-4.6-5.2-10.5-8.9-14.9-13.4-4.4-4.5-28.7-31.5-31.2-32.1s-4.9.1-6.7,1.6-12.5,16.1-12.6,17.8c0,3.6,8.4,4.5,11.5,7.3,9.7,9,1,23.2,2,24.2ZM1732.5,406.1c.3-3.1-1.9-12.5-4.9-13.3-29.6,4.5-60.4-5.2-90-2.8-3.9.3-28.7,5.4-30.1,7s-3.6,17.9-2.9,18.6c41.4-20.7,83.9-10.8,127.9-9.4ZM1747.3,406.1c-.9-7.1-6.3-12-13.4-12.1,1.3,1.9,2.3,11.6,2.7,12,.7.7,8.6-.3,10.7,0ZM1752.5,410.4c-18.5-.3-37.1-.8-55.6-1.6-14.5-.7-28.2-3.7-43.1-2.7s-44.3,9.3-47.2,13.4,1.2,14.6.4,19.3c-1.4,8.5-7.1,14.9-10.4,22.5l157.9-24.4c5-1.6.4-22.3-2-26.5ZM1769.8,414.6c-1.8-1.9-11.2-5.8-13-4.4,3.9,7.1,4.1,16.2,4,24.2,11.2,1.4,16-12.2,9-19.8ZM1854.3,416.9c-9.9-.9-22.1,0-32.3,0s-2.7,2-1.4,2.7c6.4,5.3,37.9,40.5,17.4,43s-22.2-11-31.1-14.5-20.9-5.3-30.7-8.3c-2.4-.7-5.9-3.6-6.7-3.7-2.2-.1-12.2,4.4-14.9,4.9-11.7,2-25,2.5-37.2,4.5-38.2,6.3-99.6,23.4-136.3,17s-18.9-20.3-32.3-25.6l-12.4-19.9c-21.9-1.8-44,1.3-65.8,1.2s-7.2-1.5-10.6-1.5c-21.7,0-52.3-2.4-72.8,0s-5.8,11.2-9.4,16.2-8.1,4.7-9.4,6.8-1.9,11.4-3.7,15.2c-6.2,7.8-8.2,11.9-19.2,13.1s-20.8-1.4-29.6-1.1-15.8,3.8-22.9,3.9-26.2-4.3-16.2-12.3,40.9-13.2,53.2-14.8c.3-2.3-2.4-1-4-2.1s-1.1-3-2.3-3.3c-2.5-.7-31.6,2.5-26.7-6.7,2.6-4.9,36.6-10.3,43.8-12.1l-1.3-2c-42.7-2.4-84.9,1.5-127.2-.6l-77.5,55.1h139.4c214,5.6,433.2-7.2,647.4,0,4.4.1,8.3,1.6,12.7,1.4.6-2.6-.9-2.6-2.3-3.8-14-12.8-48.7-37.8-65.1-47.9-4.1-2.6-7.9-4.4-12.7-4.8ZM1565.6,443.8c3.9,8.3,11.4,15.5,21.1,16.1s19.1-25.7,16.4-35.4-8.2,4.5-9.9,5.8c-8.1,6.3-17.5,11.2-27.6,13.5ZM1340.8,423.6c-1.3-1.4-32.1,7-37,8.1-2.1.5-2.3-.9-2,2.7,13.3,3.6,21.9,0,33.7-4.7s5.1-.5,5.3-.7.3-5.1,0-5.3ZM1375.8,425c-.2-.2-5.2.1-6.7-1.4v10.8c3.9.9,8.6-7.5,6.7-9.4ZM1342.2,431.7c-.7-.8-9.3,3.9-10.8,4.7s-3.4-.2-2.6,3.3h13.5s0-8.1,0-8.1ZM1328.4,446.9c-2.4.3-11.5,2-12.6,3.6s1,11.6,3.5,12.8c3.9,1.9,37.9,1.4,37.7-4-4.3-1-11.1-11.9-13-12.6-3-1-11.9-.3-15.6.2ZM1362.4,447.9l-12.1-1.3c3.1,6.8,10.7,12.4,12.1,1.3ZM1311.2,450.5c-8.6,3.7-23,5.6-30.6,10.4s9.4,5.9,12.4,5.8,17.5-2.1,19.5-3.5-1.4-9.9-1.4-12.8Z"/>
    <path d="M1685.4,287.7c.7.8,14-6.3,16.8-6.7s2.3,0,2,2c-8,12-10.6,30-17.2,42.1-.8,1.6,0,2.3-3,1.7l-24.2-42.4c3.2-2.6,17.5,4.8,18.8,3.4-4.9-82.5-72.9-150.4-156.1-152.1-.9-7.3,2.6-7.1,8.7-6.7,81.5,5.2,151.5,77.4,154.1,158.8Z"/>
    <path d="M1476.8,322.7l39,6.7-28.2,29.6c-.6-3.5,1.4-13.6-1.3-15.6-25.4,5.7-53-.3-73.4-16.8s-16.5-15.5-14.2-18.8,4.2-1.5,5.4-.8,8,9.8,10.8,12.2c15.4,13.5,36.7,20.9,57.3,19.6,2.5-.2,9.6-1.1,11.4-2s.6-1.7,0-2.7c-1-2-7.9-10.1-6.8-11.4Z"/>
  </g>
</svg>