<?xml version="1.0" encoding="UTF-8"?>
<svg id="Layer_1" xmlns="http://www.w3.org/2000/svg" version="1.1" viewBox="0 0 1024 1024">
  <!-- Generator: Adobe Illustrator 30.0.0, SVG Export Plug-In . SVG Version: 2.1.1 Build 123)  -->
  <defs>
    <style>
      .st0 {
        font-family: Barlow-SemiBold, Barlow;
        font-size: 33.2px;
        font-weight: 600;
      }

      .st1 {
        fill: none;
        stroke: #000;
        stroke-miterlimit: 10;
        stroke-width: 4px;
      }
    </style>
  </defs>
  <text class="st0" transform="translate(458 566)"><tspan x="0" y="0">MOVE 2</tspan></text>
  <text class="st0" transform="translate(460.8 36.2)"><tspan x="0" y="0">MOVE 1</tspan></text>
  <rect class="st1" x="19.6" y="72.2" width="987.7" height="410.8" rx="36.6" ry="36.6"/>
  <rect class="st1" x="19.6" y="601.7" width="987.7" height="410.8" rx="36.6" ry="36.6"/>
  <g>
    <path d="M103.5,440.7c-.2-.2-.5-3.8.9-4.1,5.2-4.9,26.7-17.1,29.6-21.6s-1.6-6.2-.5-9.8,22.2-19.6,26.9-23.2c2.5-2,6-2.7,8.7-4.8,6.4-5.1,19.2-25,27.1-25.7s4.2,1.4,4.5,1.2c.7-.5,6.9-11.6,9.6-14.1,11.9-11.1,20.5,11.5,30.4,15.6,8.3-1.8,16.9-1.8,25.3-3.1,22.9-3.6,40.7-11.5,65.1-8.9,8.9.9,19.5,6.9,26.2,7.7,13.9,1.7,37-9.8,51.7-14,22-6.3,45.8-8.3,66.2-17.6,14.9-6.8,24.1-10.1,41.3-8.7,18.3,1.5,29.7,12,48.7,6.8s30.5-14.8,47.3-20.4c28-9.3,59.3-13.8,85.8,2.2,5.9,3.5,12.8,11.5,17.3,13.8s28.6,7.7,29.9,6.9,1.1-2.8,2.2-3.9c5.6-5.4,17-10.7,24.7-11.8,39.5-5.8,60.8,29.7,46.3,64.6h10.1c31,20.8,59.4,46.4,89.9,68.4l1.4,4.7H103.5ZM706.6,346c-.2-8.8,5.4-19.4,5.4-27.9,0-9.4-26.5-22.3-35-24.2-22-5-55.2,1.8-75.8,10.9-2.5,1.1-5.1,1.6-6.5,4.3s-3.1,16.8-3.1,20c-.2,16,4.8,35.8,13.2,49.4,14.8-2.3,25.3,10.5,38.9,9.5,9.6-.7,22.5-10.6,31.2-14.9.5-.9-7.2-17.8-7.9-18.6s-7.4-3.8-9.8-5.8c-25.5-21.9,3.1-60.8,30.9-43,10.9,7,12.3,17.8,12,29.9l6.4,10.5ZM695.7,328.5c-.9-30.6-47.2-29.2-43.1,3.3.9,7,5.1,11.2,10,15.7,1.7-5.5-3.6-9.3-5.4-13.5-7.7-17.2,13.2-33.7,28.7-20.8,5.5,4.5,4.7,11.2,9.8,15.3ZM776.6,307.2c-5.7.6-23.6,6.5-26,11.9-2,4.4.2,12-2.4,17.9s-9.9,9.4-13.2,15.2c-13.7,24.2-2.9,26.6,20,30.1,23.2,3.5,53.1,4.2,61.8-22.6,9-28-10-55.6-40.2-52.4ZM588.9,312.2c-10.6,4.1-21,8.9-32.3,11,.1,9.5-.8,19.4-.2,28.9s5.1,24.7,6.8,37.2l36.5-9.5c-11.4-20.4-14.6-44.5-10.8-67.6ZM497,401.5h27.7c3.2,0,19.3-4.9,23.4-6.4,2.3-.8,10.4-3.4,11-5.3-5.5-21.7-9.5-44.4-7.2-66.8-27.2-8.4-57.3-16.4-81.2,4.1-2,1.7-5,3.8-4.8,6.7h19.6c.8,0,10.5,4.7,11.9,5.6,16.9,11.2,21.3,37,9,53.2l-9.5,8.8ZM687.4,326.5c0-7.4-6-13.4-13.4-13.4s-13.4,6-13.4,13.4,6,13.4,13.4,13.4,13.4-6,13.4-13.4ZM744.4,323.1c-1-1-24.5-3.8-28.3-5.5-.8,10.7-2.9,21-6.8,31.1,4.2-.2,17.4,5.3,20.3,3.5s2.4-5,4.1-6.9c2.5-2.8,8.8-6.9,9.8-9.1s1.7-12.3.9-13.1ZM463.2,328.5c-23.8,4.8-48,9.7-71,17.5s-27.5,8.6-22.3,13.6c13.8-3.2,26.9-9,40.5-12.9,11.1-3.1,40.2-7.5,47.7-11.5.6-.3,5.4-6.5,5.1-6.7ZM722.7,396c1.5-1.7-10.3-27.3-12.3-31.5-5.2-10.8-10.9-21.3-17.3-31.3-3.1-2.7-3.5,3.2-5.4,5.5-4.9,5.7-13.6,7-20.3,4.7,8.9,25.4,24,47.7,39.2,69.6,1.7,1.7,1.2,0,1.6-1.1,2.6-6.3,3.1-11,9.6-14.8,1.4-.8,4.7-.9,4.9-1.1ZM362.1,368.1c-7.4,6.8-11.1,27.4-2.5,33.5s35.6,5.1,40.6,5.4c23.3,1.3,78.4,2,97.2-11.1s13.7-43.6-4.9-54.1-43.1-.2-59.1,3.7c-24.3,5.8-47.8,14.5-71.3,22.7ZM233.3,354.1c-12.7-9.4-12.9-21.6-25.7-4.7-6.9,9.1-2.4,7.6,4,14.8s2.7,6,4,6.8c5.5,3.5,3.8-4.9,6.8-9.5s7-7.1,10.8-7.4ZM350.9,351.5c-37.7-14-72,5.8-109.9,7-3.8.2-4.6,9.5-3.6,10.6,2.1,2.2,51-11.6,60.1-12.2,16.1-1.2,32.3.9,47.3,6.9l6.2-12.3ZM199.5,400.1c.9-.9-8.2-13.3,2-23,2.3-2.2,9.4-4.8,8.8-7.3s-12.1-14.5-14-14.2c-3.2.6-18.8,20.2-22.4,23.6-7.2,6.6-19.7,12.5-27.7,19.6-1.7,1.5-9.2,8.2-8.8,10.1,1.2,6.1,24.1-3.5,28.1-4.3,11.2-2.3,22.9-2.1,34.1-4.4ZM340.1,366.3c-32.6-12.5-62.5.2-94.4,6.4s-22.5,1.6-28.4,4c-5.2,2.1-4,19.9,3.1,20.7l111.5,4.1c-6.4-7.8-6.9-16.9-2-25.6l10.1-9.5ZM355,369c-30-1.9-33,38.4,0,33.8-8.9-10.2-5.3-22.6,0-33.8ZM723.9,372c-1-.5-4.5-.9-5.1.4l9.5,23.7c12.4-6.1,27-6.8,40.5-6.8l-35.2-7.4c-4,0-8.7-9.3-9.7-9.8ZM910.8,436.6l-81.2-64.2c-5.6-.9-14.8-2.8-17.6,3.3,8.2,3,24.2,9.2,27.7,17.6.5,1.2-.5,3.2,0,4.1,1.2,1.9,13.9,8.2,6.4,13.6s-13.4,0-20.1-.1c-6.6-.1-13.8,2.3-21.6,1.4-9.7-1.1-4.5-4.6-14.2-.7-17.1,6.8-51.4,19.8-69,16.4-20.4-4-31.9-36.3-44-50.8-14.8,7.3-27.6,19.7-45.2,14.2-4.6-1.4-10.2-6.2-14.5-7.1-14.3-2.9-18.9,1.7-31.2,4.7-24.3,6-55.1,18.9-79.4,18.1s-11.2-2.6-16-2.3-12.5,3.7-18.1,4.6c-46,7.4-93.8-.7-138.9-3.7-34.2-2.2-72.3-3.2-106.8-4.1-28.3-.7-61.1,8.7-88.7,15.6l-25.7,19.6h797.8ZM799.9,406.9c10,2.4,33.8,3.6,20.3-11.5s-10.9-4.7-18.9-4.7c4.3,6.1,3.2,10.8-1.4,16.2ZM735,423.1c8-1.5,16.2-2.8,24-5,6.3-1.7,26.1-8.1,30.6-11.3s2-14.4-3.6-14.4c-6.2,1.7-52.3.9-52.4,7.1,6.8,6.8,7.2,16,1.3,23.7ZM722.4,400.3c-8,1.2-12.8,15.2-5,20.8,11.2,8.1,23.3-8.1,13.5-17.7-.9-.9-7.3-3.2-8.5-3Z"/>
    <path d="M670.1,214.9c.8-5.8,1.9-13,3.9-18.4.7-1.9-.5-2.3,2.8-1.9l27,48c.3,2.3,0,2.1-2,2.1-16.8-.3-36.1-8.3-53.4-8.2-2.9-2.5,13-11.1,14-12.1s1.5-2,.8-2.8c-77.7-46.1-173.5-52.8-255.2-12.4-15.5-5,4.4-12.1,10.9-14.9,65.8-28.6,144.2-27.7,210.1,0,14.1,5.9,27.2,14.1,41,20.5Z"/>
  </g>
  <g>
    <path d="M105.1,977.5c-1-.3-1.6-1.4-1.4-2.8.5-3.3,23.8-18.4,27.7-22.2,0-1.3-6.8-1.5-5.4-9.4s31.1-25.1,38.5-31.8c5.4-4.9,18-22.6,24.7-24.1,2.4-.5,5.3,1.2,5.6,1,.7-.4,6.3-10.7,8.3-12.7,15-15.2,21.5,13.3,33.1,14.3,3.3.3,13.1-1.3,17.2-1.8,29.9-3.9,53.4-15.5,84.8-8.5,5.5,1.2,11.9,5,17.2,5.8,14.7,2.3,43.5-11.1,59.5-15.5,14.8-4.1,41.3-6.8,53.3-11.5s10.5-8.6,15.8-11.2c10.2-4.9,24.6-8,35.8-7.3,20.8,1.3,27.2,11.1,48.4-1.6,14.2-8.5,24.4-31.2,34.3-45.3,12.3-17.4,24.9-35.6,46.2-42.9,3.3-1.1,10.8-.5,12.8-3.4.9-1.3,2.6-9.5,1.9-10.6s-6-2.2-7.9-3.6c-57-42.1,8.9-114.7,55.3-76.9,15.8,12.9,30.1,60.2,26.7,79.4-2.8,15.7-29.3,7.8-30.7,9.1s-2.3,12-3.9,15.7c-2.3,5.4-10.2,13.6-10.8,16.3-.6,2.9,2.2,8.1,2.4,11.8.5,8.2.7,20.2,0,28.3-.9,9.5-8.1,25.6-8.1,32.4,0,6.4,2.3,16.3,2.7,23,.5,7.8-.3,15.8,0,23.6,17-.8,34.2,6.7,50.7,8.1,29,2.4,60.8-2,90.1.3l87.4,67.8,2.7,6.1H105.1ZM731.9,736.9c.9-20.4-4.2-47.7-14.1-65.8-25.7-47.1-106.3-6.8-71.3,45.7,2.8,4.2,12.7,13.9,17.5,14.9,8.4,1.6,15.2-3.5,21.2-2.4s7.3,5,10.9,6.8c5.6,2.8,32.4,6.3,35.8.9ZM702.4,742.6c-13-3.4-16.4-11.7-31.1-6.2-3.2,1.2-7.2,11.9-6.8,14.7s22,16.1,23.7,21.1c7.8-8,12.7-18.5,14.1-29.6ZM680.8,849.2c6.6-17.6,15.8-56.9,4.8-73-2-2.9-21.1-21.1-23.8-22.1-11.2-4.5-30.8,10.3-38.4,18.1s-12.2,15.7-17.4,23.1c-3,4.2-22.1,33-21.7,35.1,2.3,13.1,33.6,47.6,46.6,50.7,1.7.4,7.6-1.7,8-2.3.8-1.1-3.7-22-3.9-26.2-.5-8.5,1.4-20.8,0-28.3-.7-3.8-4.3-4.7-5.9-7.6-18.9-33.6,26.1-67,48.4-36.2,9.7,13.4,6.6,27.4-.7,41l4.1,27.7ZM635,815.5v-22.3c0-.4,3.3-5.9,4-6.8,12.4-14.3,34.9-5.8,36.4,12.3.4,5-2.6,9,0,14l3.8-12.8c-1.5-18.7-13.2-31.3-32.9-25.1s-23.4,29.2-11.4,40.6ZM670.4,799.8c0-8.7-7.1-15.8-15.8-15.8s-15.8,7.1-15.8,15.8,7.1,15.8,15.8,15.8,15.8-7.1,15.8-15.8ZM671.4,814.1c-1.4-1.4-7.4,4.2-9.4,4.8-8.5,2.5-16.2.2-23-4.8-1.3,38.3,5.5,76.2,13.5,113.4,7.3-2.4,13.3-9.1,21.6-8.1,2.4-34.9,2.6-70.6-2.7-105.3ZM575.7,916.6c19.2-5.9,37.3-17,51.1-31.6-19.3-13.2-35.9-29.6-46.5-50.6-8,6.4-17,11.7-26.4,15.7,3.1,23.5,10.6,45.8,21.9,66.6ZM549.9,849.2c-18.3-1.8-33-6.6-51.6-2.3-9.3,2.1-28.4,11.7-32.1,20.5s2.1,2.1,3.4,2.1c3.6,0,6.9-1.6,10.8-1.5,37.4.4,53.3,51.3,22.3,73,14.9,3.2,34-.5,47.8-6.9,2.6-1.2,19.8-12,20.5-13.4,1.8-3.5-6-15.1-7.7-19.3-6.8-16.5-13.1-34.2-13.3-52.2ZM463.5,864.1c-3.2-2.5-69.6,16.3-78.3,19.6-6.4,2.4-17.2,5.1-17.6,12.8,17.5-5.4,34.9-12,52.6-16.9,7.2-2,35.7-6.8,39.1-9.5s4.4-5.8,4.1-6ZM471.3,873.9c-18.8,1.4-43.5,8.4-61.8,13.8-11.8,3.4-39.8,11.2-49.1,17.1-9.3,5.9-14,32-1.2,36s34.2,5.2,44.2,5.7c24.2,1.3,72,2.2,93.4-7.9,21-9.9,23.2-39.5,7.7-55.4-9.6-9.9-20.2-10.1-33.2-9.2ZM227.3,889.7c-15.3-15.3-17.5-19.2-29.6,1.9,2.3,3.1,5.4,5.4,8,8.3s4.7,10.5,9.5,7.4-1.1-2.3-.8-4.1c1.1-6.1,6.7-12.6,12.9-13.5ZM343.3,900.5c-1.6-3.5,6.6-11.1,4.1-12.8s-19.2-5.5-23.8-5.9c-22.3-2-43.3,6.9-65,10.3-5.7.9-20.2.7-23.7,1.9-3.2,1.1-3.8,9-3.5,12,37.5-6.9,74.8-22.6,112-5.4ZM643.1,903.2l-4.1-20.2c-9.5,5.4-17.4,13.1-25.6,20.2h29.7ZM205.7,908.6c.7-.7-11.3-15-12.1-15.5-1.5-.9-2.8-.9-4.5-.4-3.9,1.1-17.2,18.2-21.3,21.9-5.7,5.2-38.8,25.3-37.7,31.2s22.8-3.6,26.6-4.4c7.3-1.5,30.7-2,35.5-5,3.3-2.1-2.2-5.9-2.7-9.6-1.2-9,7.3-17.8,16.2-18.1ZM336.6,904.5c2-2.8-18-6.4-19.7-6.6-28-2.7-52.9,6.7-79.9,11.6-6.3,1.1-20.5,1.1-24.9,3.1s-3.5,18-.5,20.4c17.6,2.5,36.1,2.9,54.2,2.5l62.7,4.1c-9.3-11.4-6.2-30.1,8.1-35.1ZM752.1,921.8c.6-.7,2.6-10.2.3-11.3-7.8-1.1-59.5-12.8-62.2-10.1.5,7.8-.6,15.6-8.1,19.6,10.6-.6,65,7.4,69.9,1.8ZM352.8,905.9c-30.5-4.3-35.4,40-1.3,35.1-8.4-10.3-5-24.5,1.3-35.1ZM112.5,973.4h799.2l-84.4-66.1h-46.6l24.3,6.1c4.3,2.4,19.9,4.6,20.3,9.5.9,9.6-18.4,4.7-23.4,6-1.4.4-1.3,2.8-2.3,3.4-4.9,3.2-35.1-1.1-41.4-5.6l-16.7,2.3c11.3-.1,22.1,4,33.1,5.4,22.4,2.8,47.4,1.9,67.8,14.6s-9.8,13-17.8,12.4-13.4-1.3-23-1.3c-13.7,0-19.9-3.9-29.6-4.7-9.4-.9-22.9,2-32.4,2.1-22.4.3-59.5,1.4-79.4-8.5-8.3-4.1-11.3-18.3-13.6-26.9s-2.2-9.7-2.3-14.6c-11,.9-23.8-1.2-34.5,0s-41.2,22.6-55.4,29.6c-17.7,8.8-31.4,10.2-51.1,9.6-13.5-.4-10.4-.2-23.6,2.1-49.4,8.6-99.5-1.7-147.9-4.8-7.2-.5-14.5.4-21.6,0-54-3-95.5-8.1-149.5,1.6-19.6,3.5-34,15-48.3,28ZM205.6,912.7c-10.4-.1-15.2,18.5-5.8,21.3,9.3,2.9,4.4-3.7,4.4-9.8,0-4.2.9-7.5,1.5-11.5ZM787.5,918c.8-.7.1-4.4-2.2-5.2s-21.3-1-22.1-.2-1.7,10.3-1.3,10.8,11.5,3.4,13.5,4.1c-2.9-14.9,10.9-8.3,12.2-9.5ZM675.3,923.6c-2.9-1.8-24.4,5-17.9,15.9,7.1,12,21,4,20.8-7.3s-2.3-8.2-2.9-8.6ZM767.3,951.8c-1.3-3.9,3.3-12,0-14.2-28.2-4.9-56.3-12.9-85.1-12.8.9,9.6-.1,17.4-8.1,23.6,30.1,6.8,62.3,1.9,93.1,3.4ZM778.1,953.1c8.9,1.1,35.3,6.5,29.5-9.9-1.3-3.6-23.5-4.6-28.2-4.9,2.6,5.8,0,9.3-1.4,14.8ZM841.5,953.2l-28.3-9.5c.4,2.5-2.9,8.1-.6,9.6s16.3,4.1,18.8,4,9-1.6,10.2-4.1Z"/>
    <path d="M605.2,657.5l-1.3,55.3c-1.8,2-13.5-12.2-15.5-13.5-7.1,10.7-13.7,22.1-21.7,32.3-36.7,46.8-97.7,83.4-157.9,87.8-4.9.4-31.9,2.7-27-6.7s23.3-2.3,29.6-2.9c68.9-6,134.9-54.7,168.2-113.9,0-2.2-14.1-3.5-17-4.6s-2.3.4-1.9-2.8l44.5-31.1Z"/>
  </g>
</svg>