<?xml version="1.0" encoding="UTF-8"?>
<svg id="Layer_1" xmlns="http://www.w3.org/2000/svg" version="1.1" viewBox="0 0 1024 1024">
  <!-- Generator: Adobe Illustrator 30.0.0, SVG Export Plug-In . SVG Version: 2.1.1 Build 123)  -->
  <defs>
    <style>
      .st0 {
        fill: #fff;
      }

      .st1 {
        font-family: Barlow-SemiBold, Barlow;
        font-size: 33.2px;
        font-weight: 600;
      }

      .st2 {
        fill: none;
        stroke: #000;
        stroke-miterlimit: 10;
        stroke-width: 4px;
      }
    </style>
  </defs>
  <g>
    <g>
      <path class="st0" d="M485.9,861.6c-.9,1.1,4.7,7.7,5.6,9.4.5,1.1,1.8.8,0,2.3-24.2,6-50.9-4.3-65.3-24.4l-4.4.6c-1.9,2.7,9.3,13.5,11.6,15.4,16.7,13.5,39.4,18.5,60.3,13.8l1.1,12.8,23.2-24.3-32.1-5.5ZM485.9,861.6c-.9,1.1,4.7,7.7,5.6,9.4.5,1.1,1.8.8,0,2.3-24.2,6-50.9-4.3-65.3-24.4l-4.4.6c-1.9,2.7,9.3,13.5,11.6,15.4,16.7,13.5,39.4,18.5,60.3,13.8l1.1,12.8,23.2-24.3-32.1-5.5ZM485.9,861.6c-.9,1.1,4.7,7.7,5.6,9.4.5,1.1,1.8.8,0,2.3-24.2,6-50.9-4.3-65.3-24.4l-4.4.6c-1.9,2.7,9.3,13.5,11.6,15.4,16.7,13.5,39.4,18.5,60.3,13.8l1.1,12.8,23.2-24.3-32.1-5.5ZM485.9,861.6c-.9,1.1,4.7,7.7,5.6,9.4.5,1.1,1.8.8,0,2.3-24.2,6-50.9-4.3-65.3-24.4l-4.4.6c-1.9,2.7,9.3,13.5,11.6,15.4,16.7,13.5,39.4,18.5,60.3,13.8l1.1,12.8,23.2-24.3-32.1-5.5ZM485.9,861.6c-.9,1.1,4.7,7.7,5.6,9.4.5,1.1,1.8.8,0,2.3-24.2,6-50.9-4.3-65.3-24.4l-4.4.6c-1.9,2.7,9.3,13.5,11.6,15.4,16.7,13.5,39.4,18.5,60.3,13.8l1.1,12.8,23.2-24.3-32.1-5.5ZM485.9,861.6c-.9,1.1,4.7,7.7,5.6,9.4.5,1.1,1.8.8,0,2.3-24.2,6-50.9-4.3-65.3-24.4l-4.4.6c-1.9,2.7,9.3,13.5,11.6,15.4,16.7,13.5,39.4,18.5,60.3,13.8l1.1,12.8,23.2-24.3-32.1-5.5ZM485.9,861.6c-.9,1.1,4.7,7.7,5.6,9.4.5,1.1,1.8.8,0,2.3-24.2,6-50.9-4.3-65.3-24.4l-4.4.6c-1.9,2.7,9.3,13.5,11.6,15.4,16.7,13.5,39.4,18.5,60.3,13.8l1.1,12.8,23.2-24.3-32.1-5.5ZM485.9,861.6c-.9,1.1,4.7,7.7,5.6,9.4.5,1.1,1.8.8,0,2.3-24.2,6-50.9-4.3-65.3-24.4l-4.4.6c-1.9,2.7,9.3,13.5,11.6,15.4,16.7,13.5,39.4,18.5,60.3,13.8l1.1,12.8,23.2-24.3-32.1-5.5ZM485.9,861.6c-.9,1.1,4.7,7.7,5.6,9.4.5,1.1,1.8.8,0,2.3-24.2,6-50.9-4.3-65.3-24.4l-4.4.6c-1.9,2.7,9.3,13.5,11.6,15.4,16.7,13.5,39.4,18.5,60.3,13.8l1.1,12.8,23.2-24.3-32.1-5.5ZM485.9,861.6c-.9,1.1,4.7,7.7,5.6,9.4.5,1.1,1.8.8,0,2.3-24.2,6-50.9-4.3-65.3-24.4l-4.4.6c-1.9,2.7,9.3,13.5,11.6,15.4,16.7,13.5,39.4,18.5,60.3,13.8l1.1,12.8,23.2-24.3-32.1-5.5ZM485.9,861.6c-.9,1.1,4.7,7.7,5.6,9.4.5,1.1,1.8.8,0,2.3-24.2,6-50.9-4.3-65.3-24.4l-4.4.6c-1.9,2.7,9.3,13.5,11.6,15.4,16.7,13.5,39.4,18.5,60.3,13.8l1.1,12.8,23.2-24.3-32.1-5.5ZM485.9,861.6c-.9,1.1,4.7,7.7,5.6,9.4.5,1.1,1.8.8,0,2.3-24.2,6-50.9-4.3-65.3-24.4l-4.4.6c-1.9,2.7,9.3,13.5,11.6,15.4,16.7,13.5,39.4,18.5,60.3,13.8l1.1,12.8,23.2-24.3-32.1-5.5ZM866.2,982.7c-19-16-43.5-29.5-63-45.4l-40.8-1.2c-6.9-4.6-22.5-28.8-30.3-27.9-1.4.2-3.5,2.3-4,1.9-1.5-4.2-12.2-15-16.3-15.3-2.3,1.1-5.7,3.7-7.4,5.5-3.6,3.8-8.7,15.7-12.3,16.5-4.6.9-16.8.3-22.1,0-16.6-.7-33.1-4.5-49.8-3.4-8.8.6-17.1,3.8-25.9,4.5,4.9-27.9,9.1-55.1,8.9-83.5,0-9,1.1-16.6,1.1-24.2,0-20.2-13-39.3-31.3-47.2-28.5-12.3-51.8-.3-77.8,11-26.7-1.5-41.6-23.4-60.6-38.4-12.3-9.7-25.4-17.1-41.5-18.3l-4.3-10.9c29.8-18.3,32.2-63.2-4.2-75.7-44.9-15.3-59.5,27.5-61.2,63.3-.9,19,1.3,26,22.6,21.9l1.3.7c1.7,5.9,14.2,23.1,14.6,27.4.4,4-2.4,13.9-1.9,20.8.7,10.8,6.3,22,7.1,31.4.9,10.6-.9,24.8-.5,36.1.3,10.2,3,23.9,3.1,33.3,0,2.2-2.6,7.2-3,10.9-2,19.7,4.2,40.8,6.6,60.2h-106.7c-19.6,15.8-46,29.6-64.6,46-1.5,1.3-3.8,2.4-3.4,4.9h671.1c.3-2.4-1.9-3.6-3.4-4.9ZM729.5,913.9c1.5-1.2,3.7-1.8,5.5-1.3,2.1.6,22.1,22.7,25.7,26.4,3.6,3.7,8.4,6.7,12.2,11,2.5,2.8,13,17.6,12.5,20.3-1.7,9.2-21.6-6.4-25.8-8.2-8.9-3.8-19.9-5.4-29.3-7.7-.8-.9,6.4-12.5-1.6-19.9-2.5-2.3-9.5-3-9.5-6,0-1.4,8.8-13.4,10.3-14.6ZM715.9,933.5c1.5-1.1,9.3,2.1,10.7,3.6,5.7,6.2,1.8,17.4-7.4,16.2,0-6.6-.1-14.1-3.3-19.9ZM592.9,957c.9-5.8-.7-10.3-.4-15.8,17.9-8.2,35.6-11.9,55.4-11.1,6,.3,12.9,2,18.8,2.3,15.2.7,30.5,1.1,45.7,1.3,2,3.4,5.8,20.5,1.7,21.8l-129.8,20.1c2.7-6.2,7.5-11.5,8.6-18.5ZM579.9,973.8c-7,3.2-18.7-5.8-21-12.7,11.1-2.6,21.2-8.7,28.7-17.2,3.7-1.6,2,12.4,1.5,14.7-.8,3.4-6.1,13.7-9.2,15.1ZM712.1,898.4c3.1,0,12.7,11.4,14.7,14.6-1.6,2.3-4.2,3.8-5.8,6.1-2.6,3.6-5,13.1-10,9.9-.7-7.3-5.9-10.9-12.7-12.2-1.2-1.7,10.4-18.4,13.8-18.4ZM708.2,930.1h-8.8s-2.2-9.9-2.2-9.9c5.9,0,10.3,4.1,11,9.9ZM692,919.2c2.5.7,4.3,8.4,4,10.9-36.1-1.1-71-9.3-105,7.7l2.4-15.3c32-12.8,65.7.7,98.6-3.4ZM594.1,900.6c-1.5,9.7-3.9,28.8-7,37.2-3.9,10.6-20.6,18.2-30.9,20.9-1.9-.5-3.7-9-4.3-11.2-9.7-35.6-16-93.5-9.5-129.6,2.4-13.4,9.7-23,23.9-24.7,47.4-5.8,31.8,81.1,27.7,107.3ZM547.9,945.6c-4,.2-5.6.6-7.2-3.3-4.3-10.5-7-31.9-8.3-43.7-1.4-13.3-3.4-34.6-2.2-47.5.5-5.4,1.3-5.5,6.6-5-.8,33.6,4.3,66.8,11,99.5ZM517.7,767.8c22.5-8.1,40.8-11.2,61.9,2.8,14.6,9.7,21.7,26,21.3,43.4l-7.8-13.8c-17.3-19.8-50.9-10.6-55.2,15.5-.8,5.1.9,24.7-1.2,26.5-1.6.8-3.3,1.3-5.1,1.5-4.7.7-29.4-1.3-32.9-3.4-.5-.3-1-.4-1.3-.9l-.4-62.4c.4-1.1,17.7-8.3,20.6-9.3ZM508.7,846c6.2.7,12.9-.3,19.1,1.3-1,30.3,1.2,60,7.8,89.5h-127.2c-.4-3.2,1-6.2,1.1-9.4.5-13.2,1.5-29.2,1.1-42.1-.5-14.2-2.5-20.4-1.3-35.5.3-3.8-1-15.4,2-17,7.6-4,14.5-.3,21.2,1.7,23.1,7,30.9,8.9,55.9,9.4,8.5.2,12.1,1.2,20,2ZM473.5,771.7c6.7,1.7,13.9,4.1,20.2,6.4v62.5h-27.1c-3.1,0-14.6-2.9-18-4.1-2.8-1-5.8-2-8-4.2,16.2-16.2,26.9-37.6,30.4-60.3,1.3-1.7,1.4-.5,2.5-.3ZM327,708.2c-2.6-11.8,3-42.1,7.8-53.7,4.4-10.6,13-20.5,24.9-22.7,31.2-5.8,57.4,18.5,45.7,50.1-2.6,7.1-12.3,21.5-20.5,21.5-4.1,0-10.2-2.9-14.3-2.2-3.9.6-9,7.4-14.1,9.2-6.7,2.4-27.4,6.9-29.4-2.2ZM351,714.5c7.7,1.7,16.4-9.9,21.5-10,1.7,0,11.7,1.9,12.7,2.8l4.4,11.6c-11.1,2.9-18.8,12.7-26,21l-12.7-25.4ZM367.6,785.3l-4.4-18.3c-1.5-16.5,1.1-26.2,13.8-37,12.6-10.7,17.8-11.2,33.2-5.6,21.4,7.8,36,29.1,54.7,41.5,1.3,1.3,3.1,2.4,3.3,4.5.9,6.7-9,30.4-12.7,37-2.7,4.9-13.4,20.8-17.7,23.3-5,3-9.2-2.6-13.6-3.2-3.6-.5-10.2,2.1-14.1,2.1-3.5,0-5.9-2-9.3-2.4-.8-.9,2.8-20.4,3.2-23.7.7-5.5,0-16,1.3-20.8.7-2.2,6.6-6.4,8.4-9.2,17.1-26.9-24.4-54.2-40.7-30.8-5.9,8.5-2.1,13.9-2.3,22-.2,5.7-3.3,14.3-3.2,20.6ZM398.5,941.8c-2.6-1.8.4-35.8.1-42.1-.2-4.4-.8-10.8-1.3-15.3-.6-5.4-1.8-10.9-3.2-16.2l11.1-3.3c4.1,25.6.8,51.7,0,77.4l-6.7-.5ZM397.5,953.3v-8.8l5.5,1.1c.6,3.5-1.7,7.4-5.5,7.7ZM396.9,864.9c-2.8,0,.5-8.4.6-9.9,10.7,1.1,6.8,6.9-.6,9.9ZM397.8,850c3.3-6.5-1.9-25.7,9.3-16.7l-1.9,20.5-7.4-3.8ZM398,744.4c-6.8-4.8-13.1-3.7-20.5-1.1,21.6-20.8,52.4,16.6,27.7,34.3-3.7-12.4,6-23.8-7.2-33.2ZM383.9,744.6c17.5-3.6,25.3,20,10.1,26.7-19.2,8.6-29.6-22.7-10.1-26.7ZM373.2,768.7c8.1,8.4,18.6,10.7,27.6,2.2,2.8,30.3-4.5,60.6-7.7,90.7-1.8-.2-1.5-2.4-3.3-3.8-8.7-6.8-17.9,1.4-18.8.5-.7-29.9-3-60,2.2-89.6ZM387.5,872.1c-13.9,6.2-21.6-11.8-8-13.6,9.4-1.2,16.9,9.6,8,13.6ZM371,871.5c6.3,6.1,14.1,6.8,21,1.1,1.1,8.4,3,17.5,3.4,25.9.8,15.7,0,38.4-1.1,54.3-.2,2.8-1.1,5.4-1.2,8.2-2.9.4-13.2,0-14.2-2.8-1.1-29-12.4-57.6-7.9-86.7ZM366.5,955c1.2-.7,8.3-4.5,8.9-3.9v6.6s-11,0-11,0c-.6-2.9.7-1.9,2.2-2.7ZM342.2,953.3c-.3-2.9,0-1.8,1.7-2.2,10.1-2.3,20.1-5.2,30.4-6.6v4.3c-10.9,2.8-20.2,8-32.1,4.5ZM376.8,963.5l10.7,10.3c.2,4.5-27.7,4.9-30.9,3.3-2.7-1.3-2.7-7.6-2.9-10.5.9-1.3,8.4-2.7,10.4-3,4.2-.5,8.5-.5,12.8-.1ZM382,963.3l10,1.1c.7.6-1.7,5.9-3.7,5.4-2.6-1.6-5.3-3.4-6.3-6.5ZM861.9,985.4c-3.6.2-6.8-1-10.4-1.1-176-5.9-356,4.6-531.8,0h-114.5s63.3-44.9,63.3-44.9c5.9-1.4,11.6.8,16.9.9,8.2,0,18.2-1.2,26.5-1.2,20.5-.2,41-.2,61.4.6l1.1,1.7c-5.9,1.5-33.9,5.9-36,9.9-4,7.6,19.9,5,22,5.5,1,.3,1,2.1,1.9,2.7,1.3.9,3.6-.1,3.3,1.7-10.1,1.3-36.2,6.2-43.7,12.1-8.2,6.5,7.9,10.1,13.3,10.1,5.8,0,13.2-3,18.8-3.2,7.2-.3,16.4,1.7,24.3.9,9-1,10.7-4.3,15.8-10.7,1.5-3.1,1.7-10.1,3.1-12.5,1-1.7,5.9-3.1,7.7-5.6,2.9-4.1.9-12.5,7.7-13.3,16.9-2,41.9,0,59.8,0,8,0,16.2,0,24.2,0,12.9,0,25.7,0,38.6.2l10.2,16.3c11,4.4,14.8,19,26.5,21,30.1,5.2,80.6-8.8,111.9-14,10-1.7,21-2.1,30.6-3.7,2.2-.4,10.4-4.1,12.2-4,.7,0,3.5,2.4,5.5,3,8.1,2.5,17.4,3.8,25.2,6.8,7.3,2.9,18.3,12.8,25.6,11.9,16.8-2.1-9-31-14.3-35.4l1.1-2.2c8.6.6,18.1-.8,26.5,0,4,.4,7,1.8,10.4,3.9,13.5,8.3,42,28.9,53.5,39.4,1.1,1,2.4,1,1.9,3.1ZM351.1,977.1c-3.8,2.5-24.4,4-27.7.5-.8-2.7,2.5-3,4.4-3.8,7-3.1,14.8-4.7,22.1-7.2,0,2.4,3.3,9,1.1,10.5ZM491.5,871c.5,1.1,1.8.8,0,2.3-24.2,6-50.9-4.3-65.3-24.4l-4.4.6c-1.9,2.7,9.3,13.5,11.6,15.4,16.7,13.5,39.4,18.5,60.3,13.8l1.1,12.8,23.2-24.3-32.1-5.5c-.9,1.1,4.7,7.7,5.6,9.4ZM485.9,861.6c-.9,1.1,4.7,7.7,5.6,9.4.5,1.1,1.8.8,0,2.3-24.2,6-50.9-4.3-65.3-24.4l-4.4.6c-1.9,2.7,9.3,13.5,11.6,15.4,16.7,13.5,39.4,18.5,60.3,13.8l1.1,12.8,23.2-24.3-32.1-5.5ZM485.9,861.6c-.9,1.1,4.7,7.7,5.6,9.4.5,1.1,1.8.8,0,2.3-24.2,6-50.9-4.3-65.3-24.4l-4.4.6c-1.9,2.7,9.3,13.5,11.6,15.4,16.7,13.5,39.4,18.5,60.3,13.8l1.1,12.8,23.2-24.3-32.1-5.5ZM485.9,861.6c-.9,1.1,4.7,7.7,5.6,9.4.5,1.1,1.8.8,0,2.3-24.2,6-50.9-4.3-65.3-24.4l-4.4.6c-1.9,2.7,9.3,13.5,11.6,15.4,16.7,13.5,39.4,18.5,60.3,13.8l1.1,12.8,23.2-24.3-32.1-5.5ZM485.9,861.6c-.9,1.1,4.7,7.7,5.6,9.4.5,1.1,1.8.8,0,2.3-24.2,6-50.9-4.3-65.3-24.4l-4.4.6c-1.9,2.7,9.3,13.5,11.6,15.4,16.7,13.5,39.4,18.5,60.3,13.8l1.1,12.8,23.2-24.3-32.1-5.5ZM485.9,861.6c-.9,1.1,4.7,7.7,5.6,9.4.5,1.1,1.8.8,0,2.3-24.2,6-50.9-4.3-65.3-24.4l-4.4.6c-1.9,2.7,9.3,13.5,11.6,15.4,16.7,13.5,39.4,18.5,60.3,13.8l1.1,12.8,23.2-24.3-32.1-5.5ZM485.9,861.6c-.9,1.1,4.7,7.7,5.6,9.4.5,1.1,1.8.8,0,2.3-24.2,6-50.9-4.3-65.3-24.4l-4.4.6c-1.9,2.7,9.3,13.5,11.6,15.4,16.7,13.5,39.4,18.5,60.3,13.8l1.1,12.8,23.2-24.3-32.1-5.5ZM485.9,861.6c-.9,1.1,4.7,7.7,5.6,9.4.5,1.1,1.8.8,0,2.3-24.2,6-50.9-4.3-65.3-24.4l-4.4.6c-1.9,2.7,9.3,13.5,11.6,15.4,16.7,13.5,39.4,18.5,60.3,13.8l1.1,12.8,23.2-24.3-32.1-5.5ZM485.9,861.6c-.9,1.1,4.7,7.7,5.6,9.4.5,1.1,1.8.8,0,2.3-24.2,6-50.9-4.3-65.3-24.4l-4.4.6c-1.9,2.7,9.3,13.5,11.6,15.4,16.7,13.5,39.4,18.5,60.3,13.8l1.1,12.8,23.2-24.3-32.1-5.5ZM485.9,861.6c-.9,1.1,4.7,7.7,5.6,9.4.5,1.1,1.8.8,0,2.3-24.2,6-50.9-4.3-65.3-24.4l-4.4.6c-1.9,2.7,9.3,13.5,11.6,15.4,16.7,13.5,39.4,18.5,60.3,13.8l1.1,12.8,23.2-24.3-32.1-5.5ZM485.9,861.6c-.9,1.1,4.7,7.7,5.6,9.4.5,1.1,1.8.8,0,2.3-24.2,6-50.9-4.3-65.3-24.4l-4.4.6c-1.9,2.7,9.3,13.5,11.6,15.4,16.7,13.5,39.4,18.5,60.3,13.8l1.1,12.8,23.2-24.3-32.1-5.5ZM671.1,827.3c-2.3.4-13.2,6.2-13.8,5.5-2.4-59.7-46.8-112.9-104.8-126.8-4.3-1-26.5-5.5-28.5-2.6l-.5,4.5c68.4,1.4,124.2,57.2,128.3,124.9l-15.5-2.8,19.9,34.8c2.5.5,1.8-.1,2.5-1.4,5.4-9.9,7.6-24.7,14.1-34.6.3-1.7,0-1.9-1.6-1.6Z"/>
      <g>
        <path d="M866.2,982.7c-19-16-43.5-29.5-63-45.4l-40.8-1.2c-6.9-4.6-22.5-28.8-30.3-27.9-1.4.2-3.5,2.3-4,1.9-1.5-4.2-12.2-15-16.3-15.3-2.3,1.1-5.7,3.7-7.4,5.5-3.6,3.8-8.7,15.7-12.3,16.5-4.6.9-16.8.3-22.1,0-16.6-.7-33.1-4.5-49.8-3.4-8.8.6-17.1,3.8-25.9,4.5,4.9-27.9,9.1-55.1,8.9-83.5,0-9,1.1-16.6,1.1-24.2,0-20.2-13-39.3-31.3-47.2-28.5-12.3-51.8-.3-77.8,11-26.7-1.5-41.6-23.4-60.6-38.4-12.3-9.7-25.4-17.1-41.5-18.3l-4.3-10.9c29.8-18.3,32.2-63.2-4.2-75.7-44.9-15.3-59.5,27.5-61.2,63.3-.9,19,1.3,26,22.6,21.9l1.3.7c1.7,5.9,14.2,23.1,14.6,27.4.4,4-2.4,13.9-1.9,20.8.7,10.8,6.3,22,7.1,31.4.9,10.6-.9,24.8-.5,36.1.3,10.2,3,23.9,3.1,33.3,0,2.2-2.6,7.2-3,10.9-2,19.7,4.2,40.8,6.6,60.2h-106.7c-19.6,15.8-46,29.6-64.6,46-1.5,1.3-3.8,2.4-3.4,4.9h671.1c.3-2.4-1.9-3.6-3.4-4.9ZM729.5,913.9c1.5-1.2,3.7-1.8,5.5-1.3,2.1.6,22.1,22.7,25.7,26.4,3.6,3.7,8.4,6.7,12.2,11,2.5,2.8,13,17.6,12.5,20.3-1.7,9.2-21.6-6.4-25.8-8.2-8.9-3.8-19.9-5.4-29.3-7.7-.8-.9,6.4-12.5-1.6-19.9-2.5-2.3-9.5-3-9.5-6,0-1.4,8.8-13.4,10.3-14.6ZM715.9,933.5c1.5-1.1,9.3,2.1,10.7,3.6,5.7,6.2,1.8,17.4-7.4,16.2,0-6.6-.1-14.1-3.3-19.9ZM592.9,957c.9-5.8-.7-10.3-.4-15.8,17.9-8.2,35.6-11.9,55.4-11.1,6,.3,12.9,2,18.8,2.3,15.2.7,30.5,1.1,45.7,1.3,2,3.4,5.8,20.5,1.7,21.8l-129.8,20.1c2.7-6.2,7.5-11.5,8.6-18.5ZM579.9,973.8c-7,3.2-18.7-5.8-21-12.7,11.1-2.6,21.2-8.7,28.7-17.2,3.7-1.6,2,12.4,1.5,14.7-.8,3.4-6.1,13.7-9.2,15.1ZM712.1,898.4c3.1,0,12.7,11.4,14.7,14.6-1.6,2.3-4.2,3.8-5.8,6.1-2.6,3.6-5,13.1-10,9.9-.7-7.3-5.9-10.9-12.7-12.2-1.2-1.7,10.4-18.4,13.8-18.4ZM708.2,930.1h-8.8s-2.2-9.9-2.2-9.9c5.9,0,10.3,4.1,11,9.9ZM692,919.2c2.5.7,4.3,8.4,4,10.9-36.1-1.1-71-9.3-105,7.7l2.4-15.3c32-12.8,65.7.7,98.6-3.4ZM594.1,900.6c-1.5,9.7-3.9,28.8-7,37.2-3.9,10.6-20.6,18.2-30.9,20.9-1.9-.5-3.7-9-4.3-11.2-9.7-35.6-16-93.5-9.5-129.6,2.4-13.4,9.7-23,23.9-24.7,47.4-5.8,31.8,81.1,27.7,107.3ZM547.9,945.6c-4,.2-5.6.6-7.2-3.3-4.3-10.5-7-31.9-8.3-43.7-1.4-13.3-3.4-34.6-2.2-47.5.5-5.4,1.3-5.5,6.6-5-.8,33.6,4.3,66.8,11,99.5ZM517.7,767.8c22.5-8.1,40.8-11.2,61.9,2.8,14.6,9.7,21.7,26,21.3,43.4l-7.8-13.8c-17.3-19.8-50.9-10.6-55.2,15.5-.8,5.1.9,24.7-1.2,26.5-1.6.8-3.3,1.3-5.1,1.5-4.7.7-29.4-1.3-32.9-3.4-.5-.3-1-.4-1.3-.9l-.4-62.4c.4-1.1,17.7-8.3,20.6-9.3ZM508.7,846c6.2.7,12.9-.3,19.1,1.3-1,30.3,1.2,60,7.8,89.5h-127.2c-.4-3.2,1-6.2,1.1-9.4.5-13.2,1.5-29.2,1.1-42.1-.5-14.2-2.5-20.4-1.3-35.5.3-3.8-1-15.4,2-17,7.6-4,14.5-.3,21.2,1.7,23.1,7,30.9,8.9,55.9,9.4,8.5.2,12.1,1.2,20,2ZM473.5,771.7c6.7,1.7,13.9,4.1,20.2,6.4v62.5h-27.1c-3.1,0-14.6-2.9-18-4.1-2.8-1-5.8-2-8-4.2,16.2-16.2,26.9-37.6,30.4-60.3,1.3-1.7,1.4-.5,2.5-.3ZM327,708.2c-2.6-11.8,3-42.1,7.8-53.7,4.4-10.6,13-20.5,24.9-22.7,31.2-5.8,57.4,18.5,45.7,50.1-2.6,7.1-12.3,21.5-20.5,21.5-4.1,0-10.2-2.9-14.3-2.2-3.9.6-9,7.4-14.1,9.2-6.7,2.4-27.4,6.9-29.4-2.2ZM351,714.5c7.7,1.7,16.4-9.9,21.5-10,1.7,0,11.7,1.9,12.7,2.8l4.4,11.6c-11.1,2.9-18.8,12.7-26,21l-12.7-25.4ZM367.6,785.3l-4.4-18.3c-1.5-16.5,1.1-26.2,13.8-37,12.6-10.7,17.8-11.2,33.2-5.6,21.4,7.8,36,29.1,54.7,41.5,1.3,1.3,3.1,2.4,3.3,4.5.9,6.7-9,30.4-12.7,37-2.7,4.9-13.4,20.8-17.7,23.3-5,3-9.2-2.6-13.6-3.2-3.6-.5-10.2,2.1-14.1,2.1-3.5,0-5.9-2-9.3-2.4-.8-.9,2.8-20.4,3.2-23.7.7-5.5,0-16,1.3-20.8.7-2.2,6.6-6.4,8.4-9.2,17.1-26.9-24.4-54.2-40.7-30.8-5.9,8.5-2.1,13.9-2.3,22-.2,5.7-3.3,14.3-3.2,20.6ZM398.5,941.8c-2.6-1.8.4-35.8.1-42.1-.2-4.4-.8-10.8-1.3-15.3-.6-5.4-1.8-10.9-3.2-16.2l11.1-3.3c4.1,25.6.8,51.7,0,77.4l-6.7-.5ZM397.5,953.3v-8.8l5.5,1.1c.6,3.5-1.7,7.4-5.5,7.7ZM396.9,864.9c-2.8,0,.5-8.4.6-9.9,10.7,1.1,6.8,6.9-.6,9.9ZM397.8,850c3.3-6.5-1.9-25.7,9.3-16.7l-1.9,20.5-7.4-3.8ZM398,744.4c-6.8-4.8-13.1-3.7-20.5-1.1,21.6-20.8,52.4,16.6,27.7,34.3-3.7-12.4,6-23.8-7.2-33.2ZM383.9,744.6c17.5-3.6,25.3,20,10.1,26.7-19.2,8.6-29.6-22.7-10.1-26.7ZM373.2,768.7c8.1,8.4,18.6,10.7,27.6,2.2,2.8,30.3-4.5,60.6-7.7,90.7-1.8-.2-1.5-2.4-3.3-3.8-8.7-6.8-17.9,1.4-18.8.5-.7-29.9-3-60,2.2-89.6ZM387.5,872.1c-13.9,6.2-21.6-11.8-8-13.6,9.4-1.2,16.9,9.6,8,13.6ZM371,871.5c6.3,6.1,14.1,6.8,21,1.1,1.1,8.4,3,17.5,3.4,25.9.8,15.7,0,38.4-1.1,54.3-.2,2.8-1.1,5.4-1.2,8.2-2.9.4-13.2,0-14.2-2.8-1.1-29-12.4-57.6-7.9-86.7ZM366.5,955c1.2-.7,8.3-4.5,8.9-3.9v6.6s-11,0-11,0c-.6-2.9.7-1.9,2.2-2.7ZM342.2,953.3c-.3-2.9,0-1.8,1.7-2.2,10.1-2.3,20.1-5.2,30.4-6.6v4.3c-10.9,2.8-20.2,8-32.1,4.5ZM376.8,963.5l10.7,10.3c.2,4.5-27.7,4.9-30.9,3.3-2.7-1.3-2.7-7.6-2.9-10.5.9-1.3,8.4-2.7,10.4-3,4.2-.5,8.5-.5,12.8-.1ZM382,963.3l10,1.1c.7.6-1.7,5.9-3.7,5.4-2.6-1.6-5.3-3.4-6.3-6.5ZM861.9,985.4c-3.6.2-6.8-1-10.4-1.1-176-5.9-356,4.6-531.8,0h-114.5s63.3-44.9,63.3-44.9c5.9-1.4,11.6.8,16.9.9,8.2,0,18.2-1.2,26.5-1.2,20.5-.2,41-.2,61.4.6l1.1,1.7c-5.9,1.5-33.9,5.9-36,9.9-4,7.6,19.9,5,22,5.5,1,.3,1,2.1,1.9,2.7,1.3.9,3.6-.1,3.3,1.7-10.1,1.3-36.2,6.2-43.7,12.1-8.2,6.5,7.9,10.1,13.3,10.1,5.8,0,13.2-3,18.8-3.2,7.2-.3,16.4,1.7,24.3.9,9-1,10.7-4.3,15.8-10.7,1.5-3.1,1.7-10.1,3.1-12.5,1-1.7,5.9-3.1,7.7-5.6,2.9-4.1.9-12.5,7.7-13.3,16.9-2,41.9,0,59.8,0,8,0,16.2,0,24.2,0,12.9,0,25.7,0,38.6.2l10.2,16.3c11,4.4,14.8,19,26.5,21,30.1,5.2,80.6-8.8,111.9-14,10-1.7,21-2.1,30.6-3.7,2.2-.4,10.4-4.1,12.2-4,.7,0,3.5,2.4,5.5,3,8.1,2.5,17.4,3.8,25.2,6.8,7.3,2.9,18.3,12.8,25.6,11.9,16.8-2.1-9-31-14.3-35.4l1.1-2.2c8.6.6,18.1-.8,26.5,0,4,.4,7,1.8,10.4,3.9,13.5,8.3,42,28.9,53.5,39.4,1.1,1,2.4,1,1.9,3.1ZM351.1,977.1c-3.8,2.5-24.4,4-27.7.5-.8-2.7,2.5-3,4.4-3.8,7-3.1,14.8-4.7,22.1-7.2,0,2.4,3.3,9,1.1,10.5Z"/>
        <path d="M657.3,832.8c.6.7,11.5-5.2,13.8-5.5s1.9,0,1.6,1.7c-6.5,9.9-8.7,24.6-14.1,34.6-.7,1.3,0,1.9-2.4,1.4l-19.9-34.8,15.5,2.8c-4-67.7-59.9-123.6-128.3-124.9l.5-4.5c2-2.9,24.2,1.6,28.5,2.6,58,14,102.4,67.1,104.8,126.8Z"/>
        <path d="M518,867.1l-23.2,24.3-1.1-12.8c-20.9,4.7-43.5-.3-60.3-13.8-2.4-1.9-13.6-12.8-11.6-15.4l4.4-.6c14.4,20.2,41.1,30.4,65.3,24.4,1.8-1.4.6-1.2,0-2.3-.8-1.7-6.5-8.3-5.6-9.4l32.1,5.5Z"/>
      </g>
    </g>
    <g>
      <path class="st0" d="M597.5,165.7c-3.8-8.5-8.6-20.1-12.9-28-.6-1-1.1-2.4-2.4-2.6,0,2.8-2.6,14.6-5.9,14.3-40.3-29.6-90.3-44.3-140.3-35-5.5,1-25.3,5.9-28.9,8.7-2.8,2.1-2.4,5.3.9,5.4,3.4,0,22-7.1,28.2-8.3,49.7-9.5,96.7,5.3,137.1,33.8l-12.2,9.9,38.1,8.9c1.1-1.8-1-5.2-1.8-7ZM323.3,234c-4.5,4.4-2.5,12.9,4.5,12.8.3-3.1-4.6-4.7-3.9-7.8,1.2-5.4,9.4-6.3,13.9-4.9,3.2,1,4.3,5,7.7,5-1-9.8-16-11.1-22.2-5ZM323.3,234c-4.5,4.4-2.5,12.9,4.5,12.8.3-3.1-4.6-4.7-3.9-7.8,1.2-5.4,9.4-6.3,13.9-4.9,3.2,1,4.3,5,7.7,5-1-9.8-16-11.1-22.2-5ZM323.3,234c-4.5,4.4-2.5,12.9,4.5,12.8.3-3.1-4.6-4.7-3.9-7.8,1.2-5.4,9.4-6.3,13.9-4.9,3.2,1,4.3,5,7.7,5-1-9.8-16-11.1-22.2-5ZM323.3,234c-4.5,4.4-2.5,12.9,4.5,12.8.3-3.1-4.6-4.7-3.9-7.8,1.2-5.4,9.4-6.3,13.9-4.9,3.2,1,4.3,5,7.7,5-1-9.8-16-11.1-22.2-5ZM323.3,234c-4.5,4.4-2.5,12.9,4.5,12.8.3-3.1-4.6-4.7-3.9-7.8,1.2-5.4,9.4-6.3,13.9-4.9,3.2,1,4.3,5,7.7,5-1-9.8-16-11.1-22.2-5ZM323.3,234c-4.5,4.4-2.5,12.9,4.5,12.8.3-3.1-4.6-4.7-3.9-7.8,1.2-5.4,9.4-6.3,13.9-4.9,3.2,1,4.3,5,7.7,5-1-9.8-16-11.1-22.2-5ZM323.3,234c-4.5,4.4-2.5,12.9,4.5,12.8.3-3.1-4.6-4.7-3.9-7.8,1.2-5.4,9.4-6.3,13.9-4.9,3.2,1,4.3,5,7.7,5-1-9.8-16-11.1-22.2-5ZM323.3,234c-4.5,4.4-2.5,12.9,4.5,12.8.3-3.1-4.6-4.7-3.9-7.8,1.2-5.4,9.4-6.3,13.9-4.9,3.2,1,4.3,5,7.7,5-1-9.8-16-11.1-22.2-5ZM323.3,234c-4.5,4.4-2.5,12.9,4.5,12.8.3-3.1-4.6-4.7-3.9-7.8,1.2-5.4,9.4-6.3,13.9-4.9,3.2,1,4.3,5,7.7,5-1-9.8-16-11.1-22.2-5ZM323.3,234c-4.5,4.4-2.5,12.9,4.5,12.8.3-3.1-4.6-4.7-3.9-7.8,1.2-5.4,9.4-6.3,13.9-4.9,3.2,1,4.3,5,7.7,5-1-9.8-16-11.1-22.2-5ZM323.3,234c-4.5,4.4-2.5,12.9,4.5,12.8.3-3.1-4.6-4.7-3.9-7.8,1.2-5.4,9.4-6.3,13.9-4.9,3.2,1,4.3,5,7.7,5-1-9.8-16-11.1-22.2-5ZM323.3,234c-4.5,4.4-2.5,12.9,4.5,12.8.3-3.1-4.6-4.7-3.9-7.8,1.2-5.4,9.4-6.3,13.9-4.9,3.2,1,4.3,5,7.7,5-1-9.8-16-11.1-22.2-5ZM323.3,234c-4.5,4.4-2.5,12.9,4.5,12.8.3-3.1-4.6-4.7-3.9-7.8,1.2-5.4,9.4-6.3,13.9-4.9,3.2,1,4.3,5,7.7,5-1-9.8-16-11.1-22.2-5ZM323.3,234c-4.5,4.4-2.5,12.9,4.5,12.8.3-3.1-4.6-4.7-3.9-7.8,1.2-5.4,9.4-6.3,13.9-4.9,3.2,1,4.3,5,7.7,5-1-9.8-16-11.1-22.2-5ZM323.3,234c-4.5,4.4-2.5,12.9,4.5,12.8.3-3.1-4.6-4.7-3.9-7.8,1.2-5.4,9.4-6.3,13.9-4.9,3.2,1,4.3,5,7.7,5-1-9.8-16-11.1-22.2-5ZM323.3,234c-4.5,4.4-2.5,12.9,4.5,12.8.3-3.1-4.6-4.7-3.9-7.8,1.2-5.4,9.4-6.3,13.9-4.9,3.2,1,4.3,5,7.7,5-1-9.8-16-11.1-22.2-5ZM323.3,234c-4.5,4.4-2.5,12.9,4.5,12.8.3-3.1-4.6-4.7-3.9-7.8,1.2-5.4,9.4-6.3,13.9-4.9,3.2,1,4.3,5,7.7,5-1-9.8-16-11.1-22.2-5ZM323.3,234c-4.5,4.4-2.5,12.9,4.5,12.8.3-3.1-4.6-4.7-3.9-7.8,1.2-5.4,9.4-6.3,13.9-4.9,3.2,1,4.3,5,7.7,5-1-9.8-16-11.1-22.2-5ZM323.3,234c-4.5,4.4-2.5,12.9,4.5,12.8.3-3.1-4.6-4.7-3.9-7.8,1.2-5.4,9.4-6.3,13.9-4.9,3.2,1,4.3,5,7.7,5-1-9.8-16-11.1-22.2-5ZM323.3,234c-4.5,4.4-2.5,12.9,4.5,12.8.3-3.1-4.6-4.7-3.9-7.8,1.2-5.4,9.4-6.3,13.9-4.9,3.2,1,4.3,5,7.7,5-1-9.8-16-11.1-22.2-5ZM323.3,234c-4.5,4.4-2.5,12.9,4.5,12.8.3-3.1-4.6-4.7-3.9-7.8,1.2-5.4,9.4-6.3,13.9-4.9,3.2,1,4.3,5,7.7,5-1-9.8-16-11.1-22.2-5ZM323.3,234c-4.5,4.4-2.5,12.9,4.5,12.8.3-3.1-4.6-4.7-3.9-7.8,1.2-5.4,9.4-6.3,13.9-4.9,3.2,1,4.3,5,7.7,5-1-9.8-16-11.1-22.2-5ZM323.3,234c-4.5,4.4-2.5,12.9,4.5,12.8.3-3.1-4.6-4.7-3.9-7.8,1.2-5.4,9.4-6.3,13.9-4.9,3.2,1,4.3,5,7.7,5-1-9.8-16-11.1-22.2-5ZM323.3,234c-4.5,4.4-2.5,12.9,4.5,12.8.3-3.1-4.6-4.7-3.9-7.8,1.2-5.4,9.4-6.3,13.9-4.9,3.2,1,4.3,5,7.7,5-1-9.8-16-11.1-22.2-5ZM323.3,234c-4.5,4.4-2.5,12.9,4.5,12.8.3-3.1-4.6-4.7-3.9-7.8,1.2-5.4,9.4-6.3,13.9-4.9,3.2,1,4.3,5,7.7,5-1-9.8-16-11.1-22.2-5ZM323.3,234c-4.5,4.4-2.5,12.9,4.5,12.8.3-3.1-4.6-4.7-3.9-7.8,1.2-5.4,9.4-6.3,13.9-4.9,3.2,1,4.3,5,7.7,5-1-9.8-16-11.1-22.2-5ZM323.3,234c-4.5,4.4-2.5,12.9,4.5,12.8.3-3.1-4.6-4.7-3.9-7.8,1.2-5.4,9.4-6.3,13.9-4.9,3.2,1,4.3,5,7.7,5-1-9.8-16-11.1-22.2-5ZM323.3,234c-4.5,4.4-2.5,12.9,4.5,12.8.3-3.1-4.6-4.7-3.9-7.8,1.2-5.4,9.4-6.3,13.9-4.9,3.2,1,4.3,5,7.7,5-1-9.8-16-11.1-22.2-5ZM323.3,234c-4.5,4.4-2.5,12.9,4.5,12.8.3-3.1-4.6-4.7-3.9-7.8,1.2-5.4,9.4-6.3,13.9-4.9,3.2,1,4.3,5,7.7,5-1-9.8-16-11.1-22.2-5ZM323.3,234c-4.5,4.4-2.5,12.9,4.5,12.8.3-3.1-4.6-4.7-3.9-7.8,1.2-5.4,9.4-6.3,13.9-4.9,3.2,1,4.3,5,7.7,5-1-9.8-16-11.1-22.2-5ZM323.3,234c-4.5,4.4-2.5,12.9,4.5,12.8.3-3.1-4.6-4.7-3.9-7.8,1.2-5.4,9.4-6.3,13.9-4.9,3.2,1,4.3,5,7.7,5-1-9.8-16-11.1-22.2-5ZM323.3,234c-4.5,4.4-2.5,12.9,4.5,12.8.3-3.1-4.6-4.7-3.9-7.8,1.2-5.4,9.4-6.3,13.9-4.9,3.2,1,4.3,5,7.7,5-1-9.8-16-11.1-22.2-5ZM323.3,234c-4.5,4.4-2.5,12.9,4.5,12.8.3-3.1-4.6-4.7-3.9-7.8,1.2-5.4,9.4-6.3,13.9-4.9,3.2,1,4.3,5,7.7,5-1-9.8-16-11.1-22.2-5ZM323.3,234c-4.5,4.4-2.5,12.9,4.5,12.8.3-3.1-4.6-4.7-3.9-7.8,1.2-5.4,9.4-6.3,13.9-4.9,3.2,1,4.3,5,7.7,5-1-9.8-16-11.1-22.2-5ZM323.3,234c-4.5,4.4-2.5,12.9,4.5,12.8.3-3.1-4.6-4.7-3.9-7.8,1.2-5.4,9.4-6.3,13.9-4.9,3.2,1,4.3,5,7.7,5-1-9.8-16-11.1-22.2-5ZM323.3,234c-4.5,4.4-2.5,12.9,4.5,12.8.3-3.1-4.6-4.7-3.9-7.8,1.2-5.4,9.4-6.3,13.9-4.9,3.2,1,4.3,5,7.7,5-1-9.8-16-11.1-22.2-5ZM323.3,234c-4.5,4.4-2.5,12.9,4.5,12.8.3-3.1-4.6-4.7-3.9-7.8,1.2-5.4,9.4-6.3,13.9-4.9,3.2,1,4.3,5,7.7,5-1-9.8-16-11.1-22.2-5ZM323.3,234c-4.5,4.4-2.5,12.9,4.5,12.8.3-3.1-4.6-4.7-3.9-7.8,1.2-5.4,9.4-6.3,13.9-4.9,3.2,1,4.3,5,7.7,5-1-9.8-16-11.1-22.2-5ZM323.3,234c-4.5,4.4-2.5,12.9,4.5,12.8.3-3.1-4.6-4.7-3.9-7.8,1.2-5.4,9.4-6.3,13.9-4.9,3.2,1,4.3,5,7.7,5-1-9.8-16-11.1-22.2-5ZM323.3,234c-4.5,4.4-2.5,12.9,4.5,12.8.3-3.1-4.6-4.7-3.9-7.8,1.2-5.4,9.4-6.3,13.9-4.9,3.2,1,4.3,5,7.7,5-1-9.8-16-11.1-22.2-5ZM323.3,234c-4.5,4.4-2.5,12.9,4.5,12.8.3-3.1-4.6-4.7-3.9-7.8,1.2-5.4,9.4-6.3,13.9-4.9,3.2,1,4.3,5,7.7,5-1-9.8-16-11.1-22.2-5ZM323.3,234c-4.5,4.4-2.5,12.9,4.5,12.8.3-3.1-4.6-4.7-3.9-7.8,1.2-5.4,9.4-6.3,13.9-4.9,3.2,1,4.3,5,7.7,5-1-9.8-16-11.1-22.2-5ZM323.3,234c-4.5,4.4-2.5,12.9,4.5,12.8.3-3.1-4.6-4.7-3.9-7.8,1.2-5.4,9.4-6.3,13.9-4.9,3.2,1,4.3,5,7.7,5-1-9.8-16-11.1-22.2-5ZM323.3,234c-4.5,4.4-2.5,12.9,4.5,12.8.3-3.1-4.6-4.7-3.9-7.8,1.2-5.4,9.4-6.3,13.9-4.9,3.2,1,4.3,5,7.7,5-1-9.8-16-11.1-22.2-5ZM323.3,234c-4.5,4.4-2.5,12.9,4.5,12.8.3-3.1-4.6-4.7-3.9-7.8,1.2-5.4,9.4-6.3,13.9-4.9,3.2,1,4.3,5,7.7,5-1-9.8-16-11.1-22.2-5ZM323.3,234c-4.5,4.4-2.5,12.9,4.5,12.8.3-3.1-4.6-4.7-3.9-7.8,1.2-5.4,9.4-6.3,13.9-4.9,3.2,1,4.3,5,7.7,5-1-9.8-16-11.1-22.2-5ZM323.3,234c-4.5,4.4-2.5,12.9,4.5,12.8.3-3.1-4.6-4.7-3.9-7.8,1.2-5.4,9.4-6.3,13.9-4.9,3.2,1,4.3,5,7.7,5-1-9.8-16-11.1-22.2-5ZM323.3,234c-4.5,4.4-2.5,12.9,4.5,12.8.3-3.1-4.6-4.7-3.9-7.8,1.2-5.4,9.4-6.3,13.9-4.9,3.2,1,4.3,5,7.7,5-1-9.8-16-11.1-22.2-5ZM323.3,234c-4.5,4.4-2.5,12.9,4.5,12.8.3-3.1-4.6-4.7-3.9-7.8,1.2-5.4,9.4-6.3,13.9-4.9,3.2,1,4.3,5,7.7,5-1-9.8-16-11.1-22.2-5ZM323.3,234c-4.5,4.4-2.5,12.9,4.5,12.8.3-3.1-4.6-4.7-3.9-7.8,1.2-5.4,9.4-6.3,13.9-4.9,3.2,1,4.3,5,7.7,5-1-9.8-16-11.1-22.2-5ZM323.3,234c-4.5,4.4-2.5,12.9,4.5,12.8.3-3.1-4.6-4.7-3.9-7.8,1.2-5.4,9.4-6.3,13.9-4.9,3.2,1,4.3,5,7.7,5-1-9.8-16-11.1-22.2-5ZM323.3,234c-4.5,4.4-2.5,12.9,4.5,12.8.3-3.1-4.6-4.7-3.9-7.8,1.2-5.4,9.4-6.3,13.9-4.9,3.2,1,4.3,5,7.7,5-1-9.8-16-11.1-22.2-5ZM323.3,234c-4.5,4.4-2.5,12.9,4.5,12.8.3-3.1-4.6-4.7-3.9-7.8,1.2-5.4,9.4-6.3,13.9-4.9,3.2,1,4.3,5,7.7,5-1-9.8-16-11.1-22.2-5ZM323.3,234c-4.5,4.4-2.5,12.9,4.5,12.8.3-3.1-4.6-4.7-3.9-7.8,1.2-5.4,9.4-6.3,13.9-4.9,3.2,1,4.3,5,7.7,5-1-9.8-16-11.1-22.2-5ZM323.3,234c-4.5,4.4-2.5,12.9,4.5,12.8.3-3.1-4.6-4.7-3.9-7.8,1.2-5.4,9.4-6.3,13.9-4.9,3.2,1,4.3,5,7.7,5-1-9.8-16-11.1-22.2-5ZM323.3,234c-4.5,4.4-2.5,12.9,4.5,12.8.3-3.1-4.6-4.7-3.9-7.8,1.2-5.4,9.4-6.3,13.9-4.9,3.2,1,4.3,5,7.7,5-1-9.8-16-11.1-22.2-5ZM865.7,445.9c-20.4-18.8-47.1-33.9-68-52.5-7.6-3.6-20.8.3-26.5-2.3-6.9-3.1-18.1-22.9-26-28.2-2.8-1.9-4.9-1.6-7.1-2.8-3.1-1.7-5.8-7.4-9.7-8-8.2-1.3-16.3,20-20.8,20.8-4.7.9-17.7.3-23.2,0-23.6-1.2-40.4-6.3-64.9-1.9-2.6.5-15.7,4.6-16.4,4.1,5.8-24.5,9.3-49.4,11.1-74.6.9-12,1.5-24.5,2.2-36.5,2.6-44.7-23.8-54.8-54.6-74.9-27.6-18-46.4-32.9-81.2-38.2-35.5-5.4-82.9,7.1-105.7,36.3-3,3.8-6.6,13-8.4,14.8-1.4,1.5-19.7,11.5-21.5,11.5-4.2,0-13.7-4.4-19.9-4.4-58,0-49.8,85.3,2.1,80.7,10.6-1,43.1-9.7,48-19.5,3.4-7-4.4-16.5-8.6-21.8l12.1-8.3c-2.1,11.4-.8,23.2-1.1,34.9-.3,11.4-1.6,22.7-1.2,34.3.1,3.5,2.4,10.4,1.9,13.1-.2,1.3-2.2,2.8-2.7,4.9-5.3,21.4-1.2,43.7-1.4,65.5-2.5,0-4.6-1.1-7.1-1.2-38.9-1.3-78.1.9-117,.3-4.8,1.8-8.8,5.2-12.9,8.1-20.9,15.3-40.9,32.2-61.5,48l1.1,2.2h691.6c.4-2.2-1.4-3.2-2.8-4.4ZM742.4,364.6c3.5,1.6,13.6,15.6,17.1,19.4,11.7,12.4,27.1,23.4,31.1,40.9-3.9,6.4-20.8-8.3-26.1-10.5-6.7-2.8-23.5-5-27.6-7.8-2.5-1.7,2-5.2,2.3-8.8.6-7.6-5.7-14.5-13.3-14.9-1.1-1.2,9.3-21.6,16.6-18.2ZM733.3,403.5c-2.1,1.7-4.9,1.5-7.4,1.4l-2.2-19.9c8.3.6,17.5,12.2,9.6,18.5ZM715.5,368.6c1.7-2.6,7.8-10.9,10-12.2,4.2-2.6,9.6,4,8.7,6.4-1.2,3.5-9.2,11.3-11.2,15.5l-10.4-4.4c-.9-.9,2.2-4.3,2.9-5.4ZM601.4,393.9c36.3-20.2,77.8-5.9,117.1-8.7,3.8,1.3,4.6,17.9,4,21.9l-129.3,19.9c7.7-8.9,12.9-21.7,8.2-33.2ZM586.3,425.7c-6.1-.3-15-6.8-16.3-13,11.6-3,20.4-9.4,28.7-17.7,3.9,7.6-2.8,31.2-12.4,30.8ZM603.4,378.7c7.7-2.3,15.6-4.6,23.7-5.6,26.8-3.5,54.9,5,82.1,3.4l2.4,4.8c-.8,1.1-1.4,1.4-2.7,1.6-4.4.8-22.9-.8-28.7-1.1-6.6-.4-14.5-2-21-2.2-20.5-.8-39.7,1.4-58.1,11.1l2.5-11.9ZM596.7,391.4c-7.2,9.3-18,16.4-29.6,18.8-2.5-.4-5.9-19.3-6.6-22.8-6.8-34.6-10-71.6-6-106.7,1.6-13.9,5.1-31.8,21.8-34.6,20.7-3.5,32.9,10.8,34.6,30.2,3.1,37.4-7,78.6-14.1,115.2ZM407.4,307.1c3.9-21.8,6.9-43.7,7.8-65.8l6.5,2.4c-2.2,20.8-3.2,42.6-6.6,63.3-.3,1.7-.3,7.7-2.6,7.3l-5.1-7.1ZM404.1,324.2c-.5-.5,1.5-7.2,1.9-8.6.4-1.1-.2-3.3,1.9-2.4,6.4,2.7,3.8,12-3.8,11ZM416.1,215.6c-1.4-12.1-16.5-19.7-26.9-13-3,1.9-4.3,5.8-7.2,7.7,12-39.5,65-9.1,33.2,19.9-2.8-5.2,1.5-9.6.9-14.6ZM412.6,217.4c0,7.8-6.3,14.1-14.1,14.1s-14.1-6.3-14.1-14.1,6.3-14.1,14.1-14.1,14.1,6.3,14.1,14.1ZM383.1,226.9c6.2,5.5,11.2,9.3,20,7.3,3.3-.8,5.4-3.7,8.8-3.9,1.1,29.1-4.5,57.8-9.4,86.3-1.2,2.2-4.4-2.6-6.6-3.4-3.2-1.3-7.4-1.6-10.6-.5-2.1.7-3.1,3.1-5.5,2.8,0-29.6-.4-59.2,3.3-88.4ZM382.6,318.7c4.2-8.7,24.1.5,16.8,8.6-5.2,5.8-21.4,1-16.8-8.6ZM403,327.5l8.8-2.2c1.5,5.1,1.4,10.7,1.1,16-.8,15.1-4,34.5-6.8,49.6-.4,1.9-.8,7.9-2.5,8.2l-5.9-2.5c3.3-22.7,8.9-46.3,5.3-69.2ZM416.3,336.9c-3.2-9.4-.4-16.3.7-24.6,3.1-22.4,6.7-45,7-67.7,15.3,3.8,26.5,12.2,41.3.9,3.9-3,6.2-8.2,9.9-10,8.1-3.9,24.2-4.9,32.5-1.1,11.3,5.2,10.2,10.6,15.6,19.7,4.8,8,11.2,17.4,18.7,22.7l-2,44.5c1.8,9.8,1.1,20,2.2,29.9,1.5,13.9,5.1,27.6,6.6,41.5h-139.3l6.7-55.9ZM545.7,281.1l5.3,2.4c-3,37.3.5,74.9,8,111.4h-5.4c-8.9-37.1-13-76-7.9-113.9ZM562.6,192.8c16.3,9.4,32.4,17.3,42.2,34.1,2.5,4.2,8.3,17.2,8.3,21.6v18.2l-6.2-12.1c-24.2-25.2-53.5-11.3-55.7,22.6-.1,1.6.8,3.2-1.6,2.7-12.2-10.1-23.1-22.8-28.2-38.1l41.3-49.2ZM544.9,179.6c1.8,1.2,13.5,9.1,13.9,9.9,1.1,1.9-6.9,11.3-8.7,13.6-9.3,12-19.7,23.1-29.9,34.4-2.8,1.4-13.8-9.2-18.8-8.4,7.5-22,6.8-45.9,2.2-68.5,14.1,4.6,28.9,10.9,41.2,19ZM377.6,188.8c25.6-32.2,84.5-45.2,122.1-29.3,5.9,7,5.6,59.1-2.1,68.6-7.4,2-17.8,1.4-24.6,5.2-3.3,1.8-3.8,4.7-6.3,6.9-18.6,16.6-31.3,1.3-51.4-1.2-1.1-8.3,7.3-8.8,10.5-16.6,13.2-32.5-31.9-47-44.2-19.9-4.4,9.6-1.4,14.7-.5,24.3-1.9,2.3-8.6-12.4-9-13.6-3.6-10.2-.7-16.4,5.7-24.5ZM372.7,263.4c2.5,7.9-9.6,12.7-15.7,15.4-25,10.9-56.8,14.7-66.8-16.9-11.3-35.7,19.3-57.7,51.7-45.7,2,2.1,3.6,16.6,6.4,20.7,1.6,2.4,6.9,3.4,9.7,5.7,3.1,2.5,13.5,17.2,14.6,20.8ZM364.9,245.5c-2.4-1.1-3.3-4.3-5.1-5.8-2.2-1.9-7.7-3-8.8-4.7-.8-1.1-5.5-16.5-5.3-17.4l21.9-11.7c0,7.3,4.4,15.1,7.9,21.4,1.2,2.1,4,3.3,4.2,5.7.4,4.7-11.8,9.1-14.9,12.5ZM378.7,327.5c7.4,5.2,13.4,7.2,22.1,3.3,1.2,29-5,57.6-8.9,86.2l-13.2-2.2c-1.2-10.8-.5-21.8-1.2-32.6-1.1-18.4-4.5-36.7,1.1-54.7ZM379.8,418.2c2-.2,11,2.1,11,3.9-4.5,5.9-8.8,1.5-11-3.9ZM384.2,428.7c0,4.4-23.7,4.5-28,2.6-2.9-1.3-3.4-7.9-2.8-10.7.9-1.5,19.7-3.1,22.3-2.2l8.4,10.3ZM375.4,398.9c.4,1.7,0,3.1-1.9,3.6-10.7,3.2-19.6,8.5-31.3,5.8-.3-2.7,0-1.7,1.5-2.3,7.3-2.7,21.1-6.7,28.6-7.9,1-.2,2.5-1.3,3,.8ZM375.4,410.5c-.9-.2-14.2,1.2-11.1-2.2l9.4-3.2,1.6,5.3ZM181.9,446.9l66.9-52h121.1l-31.5,9.9c-1.5,13,18.8,3,25.5,8.8l11.6,1.1c-13.5-.4-27.8,3.4-40.6,7.5-4.5,1.4-19.9,4.8-13,11.4,7.3,7,21.9.8,30.1.3,9.8-.6,24.1,4.3,32.9-1.6.5-.4,7.1-6.5,7.4-7,2.2-3.3,2.3-10.2,3.8-12.7.8-1.4,5.1-2.9,7-5.2,2.6-3.1,5.3-8.8,6.3-12.6h141.2c3.8,2.9,4.6,10,7.4,12.8,1.6,1.6,6.1,3.4,8.4,6,2.8,3.1,4.1,7.1,7.7,10,12.3,9.8,42.2,3.2,57.3.9,28.2-4.2,55.6-9.8,84.1-13.2,4.5-.6,12-3.3,15.7-3.2,4.4,0,31.9,8.6,36.5,11.1,7.6,4,26.5,21.5,25.7.8l-16.3-25.1h18.2l65.8,52H181.9ZM351.1,431.5c-9.6.6-18.2,4.5-27.6,0-1.7-2.1,24.3-9.7,26.5-9.9l1.1,10ZM323.3,234c-4.5,4.4-2.5,12.9,4.5,12.8.3-3.1-4.6-4.7-3.9-7.8,1.2-5.4,9.4-6.3,13.9-4.9,3.2,1,4.3,5,7.7,5-1-9.8-16-11.1-22.2-5ZM323.3,234c-4.5,4.4-2.5,12.9,4.5,12.8.3-3.1-4.6-4.7-3.9-7.8,1.2-5.4,9.4-6.3,13.9-4.9,3.2,1,4.3,5,7.7,5-1-9.8-16-11.1-22.2-5ZM323.3,234c-4.5,4.4-2.5,12.9,4.5,12.8.3-3.1-4.6-4.7-3.9-7.8,1.2-5.4,9.4-6.3,13.9-4.9,3.2,1,4.3,5,7.7,5-1-9.8-16-11.1-22.2-5ZM323.3,234c-4.5,4.4-2.5,12.9,4.5,12.8.3-3.1-4.6-4.7-3.9-7.8,1.2-5.4,9.4-6.3,13.9-4.9,3.2,1,4.3,5,7.7,5-1-9.8-16-11.1-22.2-5ZM323.3,234c-4.5,4.4-2.5,12.9,4.5,12.8.3-3.1-4.6-4.7-3.9-7.8,1.2-5.4,9.4-6.3,13.9-4.9,3.2,1,4.3,5,7.7,5-1-9.8-16-11.1-22.2-5ZM323.3,234c-4.5,4.4-2.5,12.9,4.5,12.8.3-3.1-4.6-4.7-3.9-7.8,1.2-5.4,9.4-6.3,13.9-4.9,3.2,1,4.3,5,7.7,5-1-9.8-16-11.1-22.2-5ZM323.3,234c-4.5,4.4-2.5,12.9,4.5,12.8.3-3.1-4.6-4.7-3.9-7.8,1.2-5.4,9.4-6.3,13.9-4.9,3.2,1,4.3,5,7.7,5-1-9.8-16-11.1-22.2-5ZM323.3,234c-4.5,4.4-2.5,12.9,4.5,12.8.3-3.1-4.6-4.7-3.9-7.8,1.2-5.4,9.4-6.3,13.9-4.9,3.2,1,4.3,5,7.7,5-1-9.8-16-11.1-22.2-5ZM323.3,234c-4.5,4.4-2.5,12.9,4.5,12.8.3-3.1-4.6-4.7-3.9-7.8,1.2-5.4,9.4-6.3,13.9-4.9,3.2,1,4.3,5,7.7,5-1-9.8-16-11.1-22.2-5ZM323.3,234c-4.5,4.4-2.5,12.9,4.5,12.8.3-3.1-4.6-4.7-3.9-7.8,1.2-5.4,9.4-6.3,13.9-4.9,3.2,1,4.3,5,7.7,5-1-9.8-16-11.1-22.2-5ZM323.3,234c-4.5,4.4-2.5,12.9,4.5,12.8.3-3.1-4.6-4.7-3.9-7.8,1.2-5.4,9.4-6.3,13.9-4.9,3.2,1,4.3,5,7.7,5-1-9.8-16-11.1-22.2-5ZM323.3,234c-4.5,4.4-2.5,12.9,4.5,12.8.3-3.1-4.6-4.7-3.9-7.8,1.2-5.4,9.4-6.3,13.9-4.9,3.2,1,4.3,5,7.7,5-1-9.8-16-11.1-22.2-5ZM323.3,234c-4.5,4.4-2.5,12.9,4.5,12.8.3-3.1-4.6-4.7-3.9-7.8,1.2-5.4,9.4-6.3,13.9-4.9,3.2,1,4.3,5,7.7,5-1-9.8-16-11.1-22.2-5ZM323.3,234c-4.5,4.4-2.5,12.9,4.5,12.8.3-3.1-4.6-4.7-3.9-7.8,1.2-5.4,9.4-6.3,13.9-4.9,3.2,1,4.3,5,7.7,5-1-9.8-16-11.1-22.2-5ZM323.3,234c-4.5,4.4-2.5,12.9,4.5,12.8.3-3.1-4.6-4.7-3.9-7.8,1.2-5.4,9.4-6.3,13.9-4.9,3.2,1,4.3,5,7.7,5-1-9.8-16-11.1-22.2-5ZM323.3,234c-4.5,4.4-2.5,12.9,4.5,12.8.3-3.1-4.6-4.7-3.9-7.8,1.2-5.4,9.4-6.3,13.9-4.9,3.2,1,4.3,5,7.7,5-1-9.8-16-11.1-22.2-5ZM323.3,234c-4.5,4.4-2.5,12.9,4.5,12.8.3-3.1-4.6-4.7-3.9-7.8,1.2-5.4,9.4-6.3,13.9-4.9,3.2,1,4.3,5,7.7,5-1-9.8-16-11.1-22.2-5ZM323.3,234c-4.5,4.4-2.5,12.9,4.5,12.8.3-3.1-4.6-4.7-3.9-7.8,1.2-5.4,9.4-6.3,13.9-4.9,3.2,1,4.3,5,7.7,5-1-9.8-16-11.1-22.2-5ZM323.3,234c-4.5,4.4-2.5,12.9,4.5,12.8.3-3.1-4.6-4.7-3.9-7.8,1.2-5.4,9.4-6.3,13.9-4.9,3.2,1,4.3,5,7.7,5-1-9.8-16-11.1-22.2-5ZM323.3,234c-4.5,4.4-2.5,12.9,4.5,12.8.3-3.1-4.6-4.7-3.9-7.8,1.2-5.4,9.4-6.3,13.9-4.9,3.2,1,4.3,5,7.7,5-1-9.8-16-11.1-22.2-5ZM323.3,234c-4.5,4.4-2.5,12.9,4.5,12.8.3-3.1-4.6-4.7-3.9-7.8,1.2-5.4,9.4-6.3,13.9-4.9,3.2,1,4.3,5,7.7,5-1-9.8-16-11.1-22.2-5ZM323.3,234c-4.5,4.4-2.5,12.9,4.5,12.8.3-3.1-4.6-4.7-3.9-7.8,1.2-5.4,9.4-6.3,13.9-4.9,3.2,1,4.3,5,7.7,5-1-9.8-16-11.1-22.2-5ZM323.3,234c-4.5,4.4-2.5,12.9,4.5,12.8.3-3.1-4.6-4.7-3.9-7.8,1.2-5.4,9.4-6.3,13.9-4.9,3.2,1,4.3,5,7.7,5-1-9.8-16-11.1-22.2-5ZM323.3,234c-4.5,4.4-2.5,12.9,4.5,12.8.3-3.1-4.6-4.7-3.9-7.8,1.2-5.4,9.4-6.3,13.9-4.9,3.2,1,4.3,5,7.7,5-1-9.8-16-11.1-22.2-5ZM323.3,234c-4.5,4.4-2.5,12.9,4.5,12.8.3-3.1-4.6-4.7-3.9-7.8,1.2-5.4,9.4-6.3,13.9-4.9,3.2,1,4.3,5,7.7,5-1-9.8-16-11.1-22.2-5ZM323.3,234c-4.5,4.4-2.5,12.9,4.5,12.8.3-3.1-4.6-4.7-3.9-7.8,1.2-5.4,9.4-6.3,13.9-4.9,3.2,1,4.3,5,7.7,5-1-9.8-16-11.1-22.2-5ZM323.3,234c-4.5,4.4-2.5,12.9,4.5,12.8.3-3.1-4.6-4.7-3.9-7.8,1.2-5.4,9.4-6.3,13.9-4.9,3.2,1,4.3,5,7.7,5-1-9.8-16-11.1-22.2-5ZM323.3,234c-4.5,4.4-2.5,12.9,4.5,12.8.3-3.1-4.6-4.7-3.9-7.8,1.2-5.4,9.4-6.3,13.9-4.9,3.2,1,4.3,5,7.7,5-1-9.8-16-11.1-22.2-5ZM323.3,234c-4.5,4.4-2.5,12.9,4.5,12.8.3-3.1-4.6-4.7-3.9-7.8,1.2-5.4,9.4-6.3,13.9-4.9,3.2,1,4.3,5,7.7,5-1-9.8-16-11.1-22.2-5ZM323.3,234c-4.5,4.4-2.5,12.9,4.5,12.8.3-3.1-4.6-4.7-3.9-7.8,1.2-5.4,9.4-6.3,13.9-4.9,3.2,1,4.3,5,7.7,5-1-9.8-16-11.1-22.2-5ZM323.3,234c-4.5,4.4-2.5,12.9,4.5,12.8.3-3.1-4.6-4.7-3.9-7.8,1.2-5.4,9.4-6.3,13.9-4.9,3.2,1,4.3,5,7.7,5-1-9.8-16-11.1-22.2-5ZM323.3,234c-4.5,4.4-2.5,12.9,4.5,12.8.3-3.1-4.6-4.7-3.9-7.8,1.2-5.4,9.4-6.3,13.9-4.9,3.2,1,4.3,5,7.7,5-1-9.8-16-11.1-22.2-5ZM323.3,234c-4.5,4.4-2.5,12.9,4.5,12.8.3-3.1-4.6-4.7-3.9-7.8,1.2-5.4,9.4-6.3,13.9-4.9,3.2,1,4.3,5,7.7,5-1-9.8-16-11.1-22.2-5ZM323.3,234c-4.5,4.4-2.5,12.9,4.5,12.8.3-3.1-4.6-4.7-3.9-7.8,1.2-5.4,9.4-6.3,13.9-4.9,3.2,1,4.3,5,7.7,5-1-9.8-16-11.1-22.2-5ZM323.3,234c-4.5,4.4-2.5,12.9,4.5,12.8.3-3.1-4.6-4.7-3.9-7.8,1.2-5.4,9.4-6.3,13.9-4.9,3.2,1,4.3,5,7.7,5-1-9.8-16-11.1-22.2-5ZM323.3,234c-4.5,4.4-2.5,12.9,4.5,12.8.3-3.1-4.6-4.7-3.9-7.8,1.2-5.4,9.4-6.3,13.9-4.9,3.2,1,4.3,5,7.7,5-1-9.8-16-11.1-22.2-5ZM323.3,234c-4.5,4.4-2.5,12.9,4.5,12.8.3-3.1-4.6-4.7-3.9-7.8,1.2-5.4,9.4-6.3,13.9-4.9,3.2,1,4.3,5,7.7,5-1-9.8-16-11.1-22.2-5ZM323.3,234c-4.5,4.4-2.5,12.9,4.5,12.8.3-3.1-4.6-4.7-3.9-7.8,1.2-5.4,9.4-6.3,13.9-4.9,3.2,1,4.3,5,7.7,5-1-9.8-16-11.1-22.2-5ZM323.3,234c-4.5,4.4-2.5,12.9,4.5,12.8.3-3.1-4.6-4.7-3.9-7.8,1.2-5.4,9.4-6.3,13.9-4.9,3.2,1,4.3,5,7.7,5-1-9.8-16-11.1-22.2-5ZM323.3,234c-4.5,4.4-2.5,12.9,4.5,12.8.3-3.1-4.6-4.7-3.9-7.8,1.2-5.4,9.4-6.3,13.9-4.9,3.2,1,4.3,5,7.7,5-1-9.8-16-11.1-22.2-5ZM323.3,234c-4.5,4.4-2.5,12.9,4.5,12.8.3-3.1-4.6-4.7-3.9-7.8,1.2-5.4,9.4-6.3,13.9-4.9,3.2,1,4.3,5,7.7,5-1-9.8-16-11.1-22.2-5ZM323.3,234c-4.5,4.4-2.5,12.9,4.5,12.8.3-3.1-4.6-4.7-3.9-7.8,1.2-5.4,9.4-6.3,13.9-4.9,3.2,1,4.3,5,7.7,5-1-9.8-16-11.1-22.2-5ZM323.3,234c-4.5,4.4-2.5,12.9,4.5,12.8.3-3.1-4.6-4.7-3.9-7.8,1.2-5.4,9.4-6.3,13.9-4.9,3.2,1,4.3,5,7.7,5-1-9.8-16-11.1-22.2-5ZM323.3,234c-4.5,4.4-2.5,12.9,4.5,12.8.3-3.1-4.6-4.7-3.9-7.8,1.2-5.4,9.4-6.3,13.9-4.9,3.2,1,4.3,5,7.7,5-1-9.8-16-11.1-22.2-5ZM323.3,234c-4.5,4.4-2.5,12.9,4.5,12.8.3-3.1-4.6-4.7-3.9-7.8,1.2-5.4,9.4-6.3,13.9-4.9,3.2,1,4.3,5,7.7,5-1-9.8-16-11.1-22.2-5ZM323.3,234c-4.5,4.4-2.5,12.9,4.5,12.8.3-3.1-4.6-4.7-3.9-7.8,1.2-5.4,9.4-6.3,13.9-4.9,3.2,1,4.3,5,7.7,5-1-9.8-16-11.1-22.2-5ZM323.3,234c-4.5,4.4-2.5,12.9,4.5,12.8.3-3.1-4.6-4.7-3.9-7.8,1.2-5.4,9.4-6.3,13.9-4.9,3.2,1,4.3,5,7.7,5-1-9.8-16-11.1-22.2-5ZM323.3,234c-4.5,4.4-2.5,12.9,4.5,12.8.3-3.1-4.6-4.7-3.9-7.8,1.2-5.4,9.4-6.3,13.9-4.9,3.2,1,4.3,5,7.7,5-1-9.8-16-11.1-22.2-5ZM323.3,234c-4.5,4.4-2.5,12.9,4.5,12.8.3-3.1-4.6-4.7-3.9-7.8,1.2-5.4,9.4-6.3,13.9-4.9,3.2,1,4.3,5,7.7,5-1-9.8-16-11.1-22.2-5ZM323.3,234c-4.5,4.4-2.5,12.9,4.5,12.8.3-3.1-4.6-4.7-3.9-7.8,1.2-5.4,9.4-6.3,13.9-4.9,3.2,1,4.3,5,7.7,5-1-9.8-16-11.1-22.2-5ZM323.3,234c-4.5,4.4-2.5,12.9,4.5,12.8.3-3.1-4.6-4.7-3.9-7.8,1.2-5.4,9.4-6.3,13.9-4.9,3.2,1,4.3,5,7.7,5-1-9.8-16-11.1-22.2-5ZM323.3,234c-4.5,4.4-2.5,12.9,4.5,12.8.3-3.1-4.6-4.7-3.9-7.8,1.2-5.4,9.4-6.3,13.9-4.9,3.2,1,4.3,5,7.7,5-1-9.8-16-11.1-22.2-5ZM323.3,234c-4.5,4.4-2.5,12.9,4.5,12.8.3-3.1-4.6-4.7-3.9-7.8,1.2-5.4,9.4-6.3,13.9-4.9,3.2,1,4.3,5,7.7,5-1-9.8-16-11.1-22.2-5ZM323.3,234c-4.5,4.4-2.5,12.9,4.5,12.8.3-3.1-4.6-4.7-3.9-7.8,1.2-5.4,9.4-6.3,13.9-4.9,3.2,1,4.3,5,7.7,5-1-9.8-16-11.1-22.2-5ZM323.3,234c-4.5,4.4-2.5,12.9,4.5,12.8.3-3.1-4.6-4.7-3.9-7.8,1.2-5.4,9.4-6.3,13.9-4.9,3.2,1,4.3,5,7.7,5-1-9.8-16-11.1-22.2-5ZM323.3,234c-4.5,4.4-2.5,12.9,4.5,12.8.3-3.1-4.6-4.7-3.9-7.8,1.2-5.4,9.4-6.3,13.9-4.9,3.2,1,4.3,5,7.7,5-1-9.8-16-11.1-22.2-5ZM323.3,234c-4.5,4.4-2.5,12.9,4.5,12.8.3-3.1-4.6-4.7-3.9-7.8,1.2-5.4,9.4-6.3,13.9-4.9,3.2,1,4.3,5,7.7,5-1-9.8-16-11.1-22.2-5ZM319,170.5l-37.6-1.1c-1.6,1.4,8.9,10.1,9.9,11.6-16.7,10.7-30.6,28.3-35,47.9-1,4.2-4.8,24.5.3,25.6,6.3-1.9,3.3-11.4,4-17,2.2-19.4,15.9-40.3,32.5-50.4l2.2,14.4c6.5-8.7,15.4-17.3,21.5-26,1.1-1.5,2.5-2.9,2.2-5ZM353,320.6c-9-5.6-23.2-8-32.3-14.1l3.9,14.4c-19.4,0-35.9-9.8-48.7-23.7-2-2.2-4.9-8.3-7.1-8.4-7-.1.5,9.1,2.2,11.1,12.9,15.9,32.9,26.6,53.6,26.5l-3.3,15.5,33.2-18.8c.5-2.5-.3-1.8-1.4-2.5Z"/>
      <g>
        <path d="M865.7,445.9c-20.4-18.8-47.1-33.9-68-52.5-7.6-3.6-20.8.3-26.5-2.3-6.9-3.1-18.1-22.9-26-28.2-2.8-1.9-4.9-1.6-7.1-2.8-3.1-1.7-5.8-7.4-9.7-8-8.2-1.3-16.3,20-20.8,20.8-4.7.9-17.7.3-23.2,0-23.6-1.2-40.4-6.3-64.9-1.9-2.6.5-15.7,4.6-16.4,4.1,5.8-24.5,9.3-49.4,11.1-74.6.9-12,1.5-24.5,2.2-36.5,2.6-44.7-23.8-54.8-54.6-74.9-27.6-18-46.4-32.9-81.2-38.2-35.5-5.4-82.9,7.1-105.7,36.3-3,3.8-6.6,13-8.4,14.8-1.4,1.5-19.7,11.5-21.5,11.5-4.2,0-13.7-4.4-19.9-4.4-58,0-49.8,85.3,2.1,80.7,10.6-1,43.1-9.7,48-19.5,3.4-7-4.4-16.5-8.6-21.8l12.1-8.3c-2.1,11.4-.8,23.2-1.1,34.9-.3,11.4-1.6,22.7-1.2,34.3.1,3.5,2.4,10.4,1.9,13.1-.2,1.3-2.2,2.8-2.7,4.9-5.3,21.4-1.2,43.7-1.4,65.5-2.5,0-4.6-1.1-7.1-1.2-38.9-1.3-78.1.9-117,.3-4.8,1.8-8.8,5.2-12.9,8.1-20.9,15.3-40.9,32.2-61.5,48l1.1,2.2h691.6c.4-2.2-1.4-3.2-2.8-4.4ZM742.4,364.6c3.5,1.6,13.6,15.6,17.1,19.4,11.7,12.4,27.1,23.4,31.1,40.9-3.9,6.4-20.8-8.3-26.1-10.5-6.7-2.8-23.5-5-27.6-7.8-2.5-1.7,2-5.2,2.3-8.8.6-7.6-5.7-14.5-13.3-14.9-1.1-1.2,9.3-21.6,16.6-18.2ZM733.3,403.5c-2.1,1.7-4.9,1.5-7.4,1.4l-2.2-19.9c8.3.6,17.5,12.2,9.6,18.5ZM715.5,368.6c1.7-2.6,7.8-10.9,10-12.2,4.2-2.6,9.6,4,8.7,6.4-1.2,3.5-9.2,11.3-11.2,15.5l-10.4-4.4c-.9-.9,2.2-4.3,2.9-5.4ZM601.4,393.9c36.3-20.2,77.8-5.9,117.1-8.7,3.8,1.3,4.6,17.9,4,21.9l-129.3,19.9c7.7-8.9,12.9-21.7,8.2-33.2ZM586.3,425.7c-6.1-.3-15-6.8-16.3-13,11.6-3,20.4-9.4,28.7-17.7,3.9,7.6-2.8,31.2-12.4,30.8ZM603.4,378.7c7.7-2.3,15.6-4.6,23.7-5.6,26.8-3.5,54.9,5,82.1,3.4l2.4,4.8c-.8,1.1-1.4,1.4-2.7,1.6-4.4.8-22.9-.8-28.7-1.1-6.6-.4-14.5-2-21-2.2-20.5-.8-39.7,1.4-58.1,11.1l2.5-11.9ZM596.7,391.4c-7.2,9.3-18,16.4-29.6,18.8-2.5-.4-5.9-19.3-6.6-22.8-6.8-34.6-10-71.6-6-106.7,1.6-13.9,5.1-31.8,21.8-34.6,20.7-3.5,32.9,10.8,34.6,30.2,3.1,37.4-7,78.6-14.1,115.2ZM407.4,307.1c3.9-21.8,6.9-43.7,7.8-65.8l6.5,2.4c-2.2,20.8-3.2,42.6-6.6,63.3-.3,1.7-.3,7.7-2.6,7.3l-5.1-7.1ZM404.1,324.2c-.5-.5,1.5-7.2,1.9-8.6.4-1.1-.2-3.3,1.9-2.4,6.4,2.7,3.8,12-3.8,11ZM416.1,215.6c-1.4-12.1-16.5-19.7-26.9-13-3,1.9-4.3,5.8-7.2,7.7,12-39.5,65-9.1,33.2,19.9-2.8-5.2,1.5-9.6.9-14.6ZM412.6,217.4c0,7.8-6.3,14.1-14.1,14.1s-14.1-6.3-14.1-14.1,6.3-14.1,14.1-14.1,14.1,6.3,14.1,14.1ZM383.1,226.9c6.2,5.5,11.2,9.3,20,7.3,3.3-.8,5.4-3.7,8.8-3.9,1.1,29.1-4.5,57.8-9.4,86.3-1.2,2.2-4.4-2.6-6.6-3.4-3.2-1.3-7.4-1.6-10.6-.5-2.1.7-3.1,3.1-5.5,2.8,0-29.6-.4-59.2,3.3-88.4ZM382.6,318.7c4.2-8.7,24.1.5,16.8,8.6-5.2,5.8-21.4,1-16.8-8.6ZM403,327.5l8.8-2.2c1.5,5.1,1.4,10.7,1.1,16-.8,15.1-4,34.5-6.8,49.6-.4,1.9-.8,7.9-2.5,8.2l-5.9-2.5c3.3-22.7,8.9-46.3,5.3-69.2ZM416.3,336.9c-3.2-9.4-.4-16.3.7-24.6,3.1-22.4,6.7-45,7-67.7,15.3,3.8,26.5,12.2,41.3.9,3.9-3,6.2-8.2,9.9-10,8.1-3.9,24.2-4.9,32.5-1.1,11.3,5.2,10.2,10.6,15.6,19.7,4.8,8,11.2,17.4,18.7,22.7l-2,44.5c1.8,9.8,1.1,20,2.2,29.9,1.5,13.9,5.1,27.6,6.6,41.5h-139.3l6.7-55.9ZM545.7,281.1l5.3,2.4c-3,37.3.5,74.9,8,111.4h-5.4c-8.9-37.1-13-76-7.9-113.9ZM562.6,192.8c16.3,9.4,32.4,17.3,42.2,34.1,2.5,4.2,8.3,17.2,8.3,21.6v18.2l-6.2-12.1c-24.2-25.2-53.5-11.3-55.7,22.6-.1,1.6.8,3.2-1.6,2.7-12.2-10.1-23.1-22.8-28.2-38.1l41.3-49.2ZM544.9,179.6c1.8,1.2,13.5,9.1,13.9,9.9,1.1,1.9-6.9,11.3-8.7,13.6-9.3,12-19.7,23.1-29.9,34.4-2.8,1.4-13.8-9.2-18.8-8.4,7.5-22,6.8-45.9,2.2-68.5,14.1,4.6,28.9,10.9,41.2,19ZM377.6,188.8c25.6-32.2,84.5-45.2,122.1-29.3,5.9,7,5.6,59.1-2.1,68.6-7.4,2-17.8,1.4-24.6,5.2-3.3,1.8-3.8,4.7-6.3,6.9-18.6,16.6-31.3,1.3-51.4-1.2-1.1-8.3,7.3-8.8,10.5-16.6,13.2-32.5-31.9-47-44.2-19.9-4.4,9.6-1.4,14.7-.5,24.3-1.9,2.3-8.6-12.4-9-13.6-3.6-10.2-.7-16.4,5.7-24.5ZM372.7,263.4c2.5,7.9-9.6,12.7-15.7,15.4-25,10.9-56.8,14.7-66.8-16.9-11.3-35.7,19.3-57.7,51.7-45.7,2,2.1,3.6,16.6,6.4,20.7,1.6,2.4,6.9,3.4,9.7,5.7,3.1,2.5,13.5,17.2,14.6,20.8ZM364.9,245.5c-2.4-1.1-3.3-4.3-5.1-5.8-2.2-1.9-7.7-3-8.8-4.7-.8-1.1-5.5-16.5-5.3-17.4l21.9-11.7c0,7.3,4.4,15.1,7.9,21.4,1.2,2.1,4,3.3,4.2,5.7.4,4.7-11.8,9.1-14.9,12.5ZM378.7,327.5c7.4,5.2,13.4,7.2,22.1,3.3,1.2,29-5,57.6-8.9,86.2l-13.2-2.2c-1.2-10.8-.5-21.8-1.2-32.6-1.1-18.4-4.5-36.7,1.1-54.7ZM379.8,418.2c2-.2,11,2.1,11,3.9-4.5,5.9-8.8,1.5-11-3.9ZM384.2,428.7c0,4.4-23.7,4.5-28,2.6-2.9-1.3-3.4-7.9-2.8-10.7.9-1.5,19.7-3.1,22.3-2.2l8.4,10.3ZM375.4,398.9c.4,1.7,0,3.1-1.9,3.6-10.7,3.2-19.6,8.5-31.3,5.8-.3-2.7,0-1.7,1.5-2.3,7.3-2.7,21.1-6.7,28.6-7.9,1-.2,2.5-1.3,3,.8ZM375.4,410.5c-.9-.2-14.2,1.2-11.1-2.2l9.4-3.2,1.6,5.3ZM181.9,446.9l66.9-52h121.1l-31.5,9.9c-1.5,13,18.8,3,25.5,8.8l11.6,1.1c-13.5-.4-27.8,3.4-40.6,7.5-4.5,1.4-19.9,4.8-13,11.4,7.3,7,21.9.8,30.1.3,9.8-.6,24.1,4.3,32.9-1.6.5-.4,7.1-6.5,7.4-7,2.2-3.3,2.3-10.2,3.8-12.7.8-1.4,5.1-2.9,7-5.2,2.6-3.1,5.3-8.8,6.3-12.6h141.2c3.8,2.9,4.6,10,7.4,12.8,1.6,1.6,6.1,3.4,8.4,6,2.8,3.1,4.1,7.1,7.7,10,12.3,9.8,42.2,3.2,57.3.9,28.2-4.2,55.6-9.8,84.1-13.2,4.5-.6,12-3.3,15.7-3.2,4.4,0,31.9,8.6,36.5,11.1,7.6,4,26.5,21.5,25.7.8l-16.3-25.1h18.2l65.8,52H181.9ZM351.1,431.5c-9.6.6-18.2,4.5-27.6,0-1.7-2.1,24.3-9.7,26.5-9.9l1.1,10Z"/>
        <path d="M582.1,135.1c1.4.1,1.9,1.5,2.4,2.5,4.3,7.9,9.1,19.5,12.9,28,.8,1.8,2.9,5.2,1.8,7l-38.1-8.9,12.2-9.9c-40.4-28.5-87.4-43.3-137.1-33.8-6.2,1.2-24.9,8.4-28.2,8.3s-3.6-3.3-.9-5.4,23.4-7.6,28.9-8.7c50-9.4,100,5.4,140.3,35,3.3.3,6-11.4,5.9-14.3Z"/>
        <path d="M319,170.5c.3,2-1.2,3.5-2.2,5-6.2,8.7-15,17.3-21.6,26l-2.2-14.4c-16.6,10.1-30.3,31-32.5,50.4-.6,5.6,2.3,15.1-4,17-5-1.2-1.2-21.4-.3-25.6,4.4-19.6,18.4-37.2,35-47.9-1-1.5-11.5-10.2-9.9-11.6l37.6,1.1Z"/>
        <path d="M324.5,320.9l-3.9-14.4c9.2,6,23.4,8.5,32.3,14.1s1.9,0,1.4,2.5l-33.2,18.8,3.3-15.5c-20.7.1-40.7-10.6-53.6-26.5-1.6-2-9.1-11.2-2.2-11.1s5.1,6.2,7.1,8.4c12.8,13.9,29.2,23.8,48.7,23.7Z"/>
        <path d="M345.5,239.1c-3.4,0-4.5-4-7.7-5-4.5-1.4-12.8-.5-13.9,4.9-.7,3.2,4.2,4.8,3.9,7.8-7,.1-9-8.3-4.5-12.8,6.2-6.1,21.1-4.8,22.2,5Z"/>
      </g>
    </g>
  </g>
  <text class="st1" transform="translate(340.2 566)"><tspan x="0" y="0">MOVE 3 - COW (INHALE)</tspan></text>
  <text class="st1" transform="translate(339.3 36.2)"><tspan x="0" y="0">MOVE 2 - CAT (EXHALE)</tspan></text>
  <rect class="st2" x="19.6" y="72.2" width="987.7" height="410.8" rx="36.6" ry="36.6"/>
  <rect class="st2" x="19.6" y="601.7" width="987.7" height="410.8" rx="36.6" ry="36.6"/>
</svg>