<?xml version="1.0" encoding="UTF-8"?>
<svg id="Layer_1" xmlns="http://www.w3.org/2000/svg" xmlns:xlink="http://www.w3.org/1999/xlink" version="1.1" viewBox="0 0 292.9 357.3">
  <!-- Generator: Adobe Illustrator 30.0.0, SVG Export Plug-In . SVG Version: 2.1.1 Build 123)  -->
  <defs>
    <style>
      .st0, .st1 {
        font-family: Barlow-Medium, Barlow;
        font-size: 7.2px;
        font-weight: 500;
      }

      .st0, .st2 {
        fill: #f6f7f8;
      }

      .st3, .st4 {
        fill: #4f4f4f;
      }

      .st5 {
        fill: #7d7d7d;
      }

      .st6 {
        fill: #9d2cff;
      }

      .st7 {
        fill: #484c5f;
      }

      .st8 {
        fill: #00fccc;
      }

      .st9 {
        fill: #ff7f00;
      }

      .st4 {
        letter-spacing: 0em;
      }

      .st10 {
        fill: #007aff;
      }
    </style>
  </defs>
  <g>
    <path class="st5" d="M63.6,35.6c-.4-1-1.1-1.4-2.3-1.3l-28.2,4c-1.1.2-1.9.8-2.3,1.9L2.8,133.4c-.4,1.6,0,2.2,1.7,2l22.7-3.2c1.2-.2,2-.9,2.3-2.1l2.9-10.8c.2-.4.4-.6.7-.6l28.2-4c.3,0,.5,0,.7.4l2.9,10c.3,1.1,1,1.6,2.3,1.4l22.7-3.2c1.2-.2,1.9-.8,1.9-1.7s0-.6,0-.8l-28.1-85.3h0ZM55.5,96.5l-16.6,2.3c-.5,0-.6-.2-.5-.7l8.4-31c0-.3.2-.4.4-.5s.3,0,.4.3l8.5,28.6c.2.5,0,.8-.5.9h-.1Z"/>
    <path class="st5" d="M290.9,4.3c.3-.5.4-.9.4-1.2s-.2-.6-.5-.8c-.3-.2-.7-.2-1.3-.2l-22.9,3.2c-1.1.2-1.9.8-2.4,1.8l-13,27c-.3.4-.5.4-.8,0l-13-23.3c-.4-.9-1.2-1.3-2.4-1.1l-23,3.2c-.5,0-.9.2-1.3.5-.3.3-.5.6-.5.9s.1.7.4,1.1l24.2,40.3c.2.2.2.5,0,.8l-24.2,47.2c-.3.4-.4.8-.4,1.2s.1.6.5.8c.3.2.7.2,1.3.2l22.9-3.2c1.1-.2,1.9-.8,2.4-1.8l13.2-26.8c.3-.5.5-.5.8,0l13.2,23.2c.5.9,1.3,1.3,2.4,1.1l22.7-3.2c.5,0,1-.2,1.3-.5s.5-.6.5-.9-.1-.8-.4-1.1l-24.1-40.4v-.8l24.1-47.1h-.1Z"/>
    <path class="st5" d="M55.1,258.7l-21,3c-.6,0-1.1.3-1.5.7-.4.4-.5.9-.5,1.5v89.1c0,.6.2,1.1.5,1.4s.8.4,1.5.3l21-3c.6,0,1.1-.3,1.5-.7.3-.4.5-.9.5-1.5v-89.1c0-.6-.2-1.1-.5-1.4-.4-.3-.8-.4-1.5-.3Z"/>
    <path class="st5" d="M268.1,269.3c-5.5-.9-8.7-1.4-9.4-1.5-5.1-.9-9-1.6-11.4-2.3-2.5-.7-4.3-1.5-5.5-2.4s-1.8-2.2-1.8-3.8.8-3.8,2.5-5.1,3.9-2.3,6.7-2.7c4.1-.6,7.3,0,9.7,1.9,2.4,1.8,3.6,4.1,3.6,6.7h0c0,.8.2,1.2.5,1.5.4.3.8.4,1.5.3l20.6-2.9c.6,0,1.1-.3,1.5-.7.4-.4.5-.9.5-1.5v-1.2c0-6-1.6-11.2-4.9-15.4-3.2-4.2-7.7-7.2-13.3-9-5.6-1.8-11.9-2.2-18.8-1.2-6.6.9-12.5,2.9-17.8,5.9-5.3,3.1-9.4,6.9-12.4,11.7-3,4.7-4.5,9.9-4.5,15.5,0,8.4,3,14.4,8.9,18s13.3,6.1,22.1,7.5l3.9.5c4.7.8,7.9,1.5,9.7,2.2,1.8.7,2.7,2.1,2.7,4s-.7,3.3-2.1,4.9-3.8,2.6-7.1,3c-4.4.6-7.8.1-10.4-1.4-2.6-1.5-3.9-3.5-3.9-6v-.8c0-.6-.2-1.1-.5-1.4-.4-.3-.8-.4-1.5-.3l-20.6,2.9c-.6,0-1.1.3-1.5.7-.4.4-.5.9-.5,1.5v1.9c0,5.9,1.5,11,4.6,15s7.4,7,13,8.6c5.6,1.7,12.1,2,19.6.9,7.2-1,13.5-3,18.9-6.1s9.6-7,12.6-11.7,4.5-10.1,4.5-16-1.9-11.1-5.6-14.8c-3.7-3.8-8.4-6.1-13.9-7h-.2Z"/>
  </g>
  <g id="K886Nu">
    <image id="K886Nu1" data-name="K886Nu" width="1024" height="1024" transform="translate(-702.7 45.3) scale(.3)" xlink:href="AXIS_Branding_Merch-1.png"/>
  </g>
  <g id="e9isc8">
    <image id="e9isc81" data-name="e9isc8" width="1024" height="1024" transform="translate(-424.2 45.3) scale(.3)" xlink:href="AXIS_Branding_Merch-2.png"/>
  </g>
  <g id="K886Nu2" data-name="K886Nu">
    <image id="K886Nu3" data-name="K886Nu" width="1024" height="1024" transform="translate(-702.7 344) scale(.3)" xlink:href="AXIS_Branding_Merch-3.png"/>
  </g>
  <g id="e9isc82" data-name="e9isc8">
    <image id="e9isc83" data-name="e9isc8" width="1024" height="1024" transform="translate(-424.2 344) scale(.3)" xlink:href="AXIS_Branding_Merch-4.png"/>
  </g>
  <g>
    <path class="st2" d="M-543.4,100.2c0,0,0,0-.1,0l-1.8.3c0,0-.1,0-.1.1l-1.8,5.9c0,.1,0,.1.1.1l1.4-.2c0,0,.1,0,.1-.1l.2-.7s0,0,0,0l1.8-.3s0,0,0,0l.2.6c0,0,0,.1.1,0l1.4-.2c0,0,.1,0,.1-.1s0,0,0,0l-1.8-5.4h0ZM-543.9,104h-1.1c0,.1,0,.1,0,.1l.5-2s0,0,0,0,0,0,0,0l.5,1.8s0,0,0,0h0Z"/>
    <path class="st2" d="M-529,98.2s0,0,0,0,0,0,0,0c0,0,0,0,0,0l-1.5.2c0,0-.1,0-.2.1l-.8,1.7s0,0,0,0l-.8-1.5c0,0,0,0-.2,0l-1.5.2s0,0,0,0c0,0,0,0,0,0s0,0,0,0l1.5,2.6s0,0,0,0l-1.5,3s0,0,0,0,0,0,0,0c0,0,0,0,0,0l1.5-.2c0,0,.1,0,.2-.1l.8-1.7s0,0,0,0l.8,1.5c0,0,0,0,.2,0l1.4-.2s0,0,0,0,0,0,0,0,0,0,0,0l-1.5-2.6h0c0,0,1.5-3,1.5-3h0Z"/>
    <path class="st2" d="M-543.9,114.3l-1.3.2s0,0,0,0c0,0,0,0,0,0v5.6s0,0,0,0,0,0,0,0l1.3-.2s0,0,0,0c0,0,0,0,0,0v-5.6s0,0,0,0c0,0,0,0,0,0Z"/>
    <path class="st2" d="M-530.4,115c-.3,0-.6,0-.6,0-.3,0-.6-.1-.7-.1-.2,0-.3,0-.3-.2s-.1-.1-.1-.2,0-.2.2-.3.2-.1.4-.2c.3,0,.5,0,.6.1.2.1.2.3.2.4h0c0,0,0,0,0,0,0,0,0,0,0,0l1.3-.2s0,0,0,0c0,0,0,0,0,0h0c0-.5-.1-.8-.3-1.1-.2-.3-.5-.5-.8-.6-.4-.1-.8-.1-1.2,0-.4,0-.8.2-1.1.4-.3.2-.6.4-.8.7-.2.3-.3.6-.3,1,0,.5.2.9.6,1.1s.8.4,1.4.5h.2c.3,0,.5.1.6.2.1,0,.2.1.2.3s0,.2-.1.3-.2.2-.4.2c-.3,0-.5,0-.7,0-.2,0-.2-.2-.2-.4h0c0,0,0-.1,0-.1,0,0,0,0,0,0l-1.3.2s0,0,0,0c0,0,0,0,0,0h0c0,.5,0,.8.3,1.1s.5.4.8.5c.4.1.8.1,1.2,0,.5,0,.9-.2,1.2-.4s.6-.4.8-.7.3-.6.3-1-.1-.7-.4-.9c-.2-.2-.5-.4-.9-.4h0Z"/>
  </g>
  <g>
    <path class="st2" d="M-310.9,398.3c0-.2-.2-.3-.5-.3l-6.1.9c-.2,0-.4.2-.5.4l-6.1,20.2c0,.3,0,.5.4.4l4.9-.7c.3,0,.4-.2.5-.5l.6-2.3c0,0,0-.1.2-.1l6.1-.9c0,0,.1,0,.2,0l.6,2.2c0,.2.2.3.5.3l4.9-.7c.3,0,.4-.2.4-.4s0-.1,0-.2l-6.1-18.5h0ZM-312.6,411.5l-3.6.5c-.1,0-.1,0-.1-.2l1.8-6.7c0,0,0,0,0-.1s0,0,0,0l1.8,6.2c0,.1,0,.2-.1.2h0Z"/>
    <path class="st2" d="M-261.7,391.5c0-.1,0-.2,0-.3s0-.1-.1-.2c0,0-.2,0-.3,0l-5,.7c-.2,0-.4.2-.5.4l-2.8,5.8c0,0-.1,0-.2,0l-2.8-5c0-.2-.3-.3-.5-.2l-5,.7c-.1,0-.2,0-.3.1,0,0-.1.1-.1.2s0,.2,0,.2l5.2,8.7s0,.1,0,.2l-5.2,10.2c0,0,0,.2,0,.3s0,.1.1.2c0,0,.2,0,.3,0l5-.7c.2,0,.4-.2.5-.4l2.9-5.8c0-.1.1-.1.2,0l2.9,5c.1.2.3.3.5.2l4.9-.7c.1,0,.2,0,.3-.1s.1-.1.1-.2,0-.2,0-.2l-5.2-8.7v-.2l5.2-10.2h0Z"/>
    <path class="st2" d="M-312.7,446.6l-4.5.6c-.1,0-.2,0-.3.2,0,0-.1.2-.1.3v19.3c0,.1,0,.2.1.3s.2,0,.3,0l4.5-.6c.1,0,.2,0,.3-.2,0,0,.1-.2.1-.3v-19.3c0-.1,0-.2-.1-.3,0,0-.2,0-.3,0Z"/>
    <path class="st2" d="M-266.6,448.9c-1.2-.2-1.9-.3-2-.3-1.1-.2-1.9-.3-2.5-.5-.5-.2-.9-.3-1.2-.5s-.4-.5-.4-.8.2-.8.5-1.1.8-.5,1.5-.6c.9-.1,1.6,0,2.1.4.5.4.8.9.8,1.5h0c0,.2,0,.3.1.3,0,0,.2,0,.3,0l4.5-.6c.1,0,.2,0,.3-.2,0,0,.1-.2.1-.3v-.3c0-1.3-.3-2.4-1.1-3.3-.7-.9-1.7-1.6-2.9-1.9-1.2-.4-2.6-.5-4.1-.3-1.4.2-2.7.6-3.9,1.3-1.1.7-2,1.5-2.7,2.5-.6,1-1,2.1-1,3.4,0,1.8.6,3.1,1.9,3.9,1.3.8,2.9,1.3,4.8,1.6h.8c1,.3,1.7.4,2.1.6.4.2.6.5.6.9s-.2.7-.5,1.1-.8.6-1.5.6c-1,.1-1.7,0-2.3-.3-.6-.3-.8-.8-.8-1.3v-.2c0-.1,0-.2-.1-.3,0,0-.2,0-.3,0l-4.5.6c-.1,0-.2,0-.3.2,0,0-.1.2-.1.3v.4c0,1.3.3,2.4,1,3.2s1.6,1.5,2.8,1.9c1.2.4,2.6.4,4.2.2,1.6-.2,2.9-.6,4.1-1.3s2.1-1.5,2.7-2.5,1-2.2,1-3.5-.4-2.4-1.2-3.2c-.8-.8-1.8-1.3-3-1.5h0Z"/>
  </g>
  <text class="st1" transform="translate(-340.2 101)"><tspan class="st3" x="0" y="0">X </tspan><tspan class="st2" x="5.8" y="0">MOVE</tspan><tspan class="st3" x="24.1" y="0" xml:space="preserve"> X MEND X MAINTAIN X</tspan></text>
  <g>
    <path class="st2" d="M-544.9,403.9s0,0,0,0l1.1-1.7s0,0,0,0l-1.1-1.7s0,0,0,0c0,0,0,0,0,0h.4s0,0,0,0l.8,1.4s0,0,0,0,0,0,0,0l.8-1.4s0,0,0,0h.4s0,0,0,0c0,0,0,0,0,0l-1.1,1.7s0,0,0,0l1.1,1.7s0,0,0,0c0,0,0,0,0,0h-.4s0,0,0,0l-.8-1.4s0,0,0,0,0,0,0,0l-.8,1.4s0,0,0,0h-.4s0,0,0,0Z"/>
    <path class="st2" d="M-538.1,400.3h.4s0,0,0,0v3.5s0,0,0,0h-.4s0,0,0,0v-2.7s0,0,0,0c0,0,0,0,0,0l-.7,1.1s0,0,0,0h-.2s0,0,0,0l-.7-1.1s0,0,0,0,0,0,0,0v2.6s0,0,0,0h-.4s0,0,0,0v-3.5s0,0,0,0h.4s0,0,0,0l.9,1.4s0,0,0,0,0,0,0,0l.9-1.4s0,0,0,0Z"/>
    <path class="st2" d="M-536.3,403.8c-.2-.1-.3-.2-.5-.4s-.2-.4-.2-.7v-1.2c0-.2,0-.5.2-.6s.3-.3.5-.4c.2-.1.4-.2.7-.2s.5,0,.7.2c.2.1.3.2.5.4.1.2.2.4.2.6v1.2c0,.2,0,.5-.2.7-.1.2-.3.3-.5.4-.2.1-.4.2-.7.2s-.5,0-.7-.2ZM-535,403.3c.1-.1.2-.3.2-.6v-1.3c0-.2,0-.4-.2-.6-.1-.1-.3-.2-.6-.2s-.4,0-.6.2c-.1.1-.2.3-.2.6v1.3c0,.2,0,.4.2.6s.3.2.6.2.4,0,.6-.2Z"/>
    <path class="st2" d="M-532.7,403.9l-1.1-3.5h0s0,0,0,0h.4s0,0,0,0l.9,2.9s0,0,0,0,0,0,0,0l.9-2.9s0,0,0,0h.4s0,0,0,0l-1.1,3.5s0,0,0,0h-.4s0,0,0,0Z"/>
    <path class="st2" d="M-528.2,400.7h-1.8s0,0,0,0v1.1s0,0,0,0h1.3s0,0,0,0v.3s0,0,0,0h-1.3s0,0,0,0v1.1s0,0,0,0h1.8s0,0,0,0v.3s0,0,0,0h-2.3s0,0,0,0v-3.5s0,0,0,0h2.3s0,0,0,0v.3s0,0,0,0Z"/>
    <path class="st2" d="M-526.6,403.9s0,0,0,0l1.1-1.7s0,0,0,0l-1.1-1.7s0,0,0,0c0,0,0,0,0,0h.4s0,0,0,0l.8,1.4s0,0,0,0,0,0,0,0l.8-1.4s0,0,0,0h.4s0,0,0,0c0,0,0,0,0,0l-1.1,1.7s0,0,0,0l1.1,1.7s0,0,0,0c0,0,0,0,0,0h-.4s0,0,0,0l-.8-1.4s0,0,0,0,0,0,0,0l-.8,1.4s0,0,0,0h-.4s0,0,0,0Z"/>
    <path class="st2" d="M-544.6,410.1s0,0,0,0l1.1-1.7s0,0,0,0l-1.1-1.7s0,0,0,0c0,0,0,0,0,0h.4s0,0,0,0l.8,1.4s0,0,0,0,0,0,0,0l.8-1.4s0,0,0,0h.4s0,0,0,0c0,0,0,0,0,0l-1.1,1.7s0,0,0,0l1.1,1.7s0,0,0,0c0,0,0,0,0,0h-.4s0,0,0,0l-.8-1.4s0,0,0,0,0,0,0,0l-.8,1.4s0,0,0,0h-.4s0,0,0,0Z"/>
    <path class="st2" d="M-537.7,406.5h.4s0,0,0,0v3.5s0,0,0,0h-.4s0,0,0,0v-2.7s0,0,0,0c0,0,0,0,0,0l-.7,1.1s0,0,0,0h-.2s0,0,0,0l-.7-1.1s0,0,0,0,0,0,0,0v2.6s0,0,0,0h-.4s0,0,0,0v-3.5s0,0,0,0h.4s0,0,0,0l.9,1.4s0,0,0,0,0,0,0,0l.9-1.4s0,0,0,0Z"/>
    <path class="st2" d="M-534.1,406.9h-1.8s0,0,0,0v1.1s0,0,0,0h1.3s0,0,0,0v.3s0,0,0,0h-1.3s0,0,0,0v1.1s0,0,0,0h1.8s0,0,0,0v.3s0,0,0,0h-2.3s0,0,0,0v-3.5s0,0,0,0h2.3s0,0,0,0v.3s0,0,0,0Z"/>
    <path class="st2" d="M-531.2,406.5h.4s0,0,0,0v3.5s0,0,0,0h-.4s0,0,0,0l-1.6-2.6s0,0,0,0c0,0,0,0,0,0v2.6s0,0,0,0h-.4s0,0,0,0v-3.5s0,0,0,0h.4s0,0,0,0l1.6,2.6s0,0,0,0,0,0,0,0v-2.6s0,0,0,0Z"/>
    <path class="st2" d="M-529.9,410.1v-3.5s0,0,0,0h1.3c.4,0,.6,0,.9.3s.3.4.3.8v1.6c0,.3-.1.6-.3.8s-.5.3-.9.3h-1.3s0,0,0,0ZM-529.4,409.7h.8c.2,0,.4,0,.5-.2.1-.1.2-.3.2-.5v-1.4c0-.2,0-.4-.2-.5-.1-.1-.3-.2-.5-.2h-.8s0,0,0,0v2.7s0,0,0,0Z"/>
    <path class="st2" d="M-525.9,410.1s0,0,0,0l1.1-1.7s0,0,0,0l-1.1-1.7s0,0,0,0c0,0,0,0,0,0h.4s0,0,0,0l.8,1.4s0,0,0,0,0,0,0,0l.8-1.4s0,0,0,0h.4s0,0,0,0c0,0,0,0,0,0l-1.1,1.7s0,0,0,0l1.1,1.7s0,0,0,0c0,0,0,0,0,0h-.4s0,0,0,0l-.8-1.4s0,0,0,0,0,0,0,0l-.8,1.4s0,0,0,0h-.4s0,0,0,0Z"/>
    <path class="st2" d="M-549.1,416.3s0,0,0,0l1.1-1.7s0,0,0,0l-1.1-1.7s0,0,0,0c0,0,0,0,0,0h.4s0,0,0,0l.8,1.4s0,0,0,0,0,0,0,0l.8-1.4s0,0,0,0h.4s0,0,0,0c0,0,0,0,0,0l-1.1,1.7s0,0,0,0l1.1,1.7s0,0,0,0c0,0,0,0,0,0h-.4s0,0,0,0l-.8-1.4s0,0,0,0,0,0,0,0l-.8,1.4s0,0,0,0h-.4s0,0,0,0Z"/>
    <path class="st2" d="M-542.3,412.7h.4s0,0,0,0v3.5s0,0,0,0h-.4s0,0,0,0v-2.7s0,0,0,0c0,0,0,0,0,0l-.7,1.1s0,0,0,0h-.2s0,0,0,0l-.7-1.1s0,0,0,0,0,0,0,0v2.6s0,0,0,0h-.4s0,0,0,0v-3.5s0,0,0,0h.4s0,0,0,0l.9,1.4s0,0,0,0,0,0,0,0l.9-1.4s0,0,0,0Z"/>
    <path class="st2" d="M-538.9,416.3l-.2-.6s0,0,0,0h-1.5s0,0,0,0l-.2.6s0,0,0,0h-.4s0,0,0,0l1.1-3.5s0,0,0,0h.5s0,0,0,0l1.1,3.5h0s0,0,0,0h-.4s0,0,0,0ZM-540.4,415.3s0,0,0,0h1.2s0,0,0,0c0,0,0,0,0,0l-.6-1.9s0,0,0,0,0,0,0,0l-.6,1.9s0,0,0,0Z"/>
    <path class="st2" d="M-537.8,416.3v-3.5s0,0,0,0h.4s0,0,0,0v3.5s0,0,0,0h-.4s0,0,0,0Z"/>
    <path class="st2" d="M-534.2,412.7h.4s0,0,0,0v3.5s0,0,0,0h-.4s0,0,0,0l-1.6-2.6s0,0,0,0c0,0,0,0,0,0v2.6s0,0,0,0h-.4s0,0,0,0v-3.5s0,0,0,0h.4s0,0,0,0l1.6,2.6s0,0,0,0,0,0,0,0v-2.6s0,0,0,0Z"/>
    <path class="st2" d="M-530.6,412.8v.3s0,0,0,0h-1s0,0,0,0v3.1s0,0,0,0h-.4s0,0,0,0v-3.1s0,0,0,0h-.9s0,0,0,0v-.3s0,0,0,0h2.5s0,0,0,0Z"/>
    <path class="st2" d="M-528.1,416.3l-.2-.6s0,0,0,0h-1.5s0,0,0,0l-.2.6s0,0,0,0h-.4s0,0,0,0l1.1-3.5s0,0,0,0h.5s0,0,0,0l1.1,3.5h0s0,0,0,0h-.4s0,0,0,0ZM-529.7,415.3s0,0,0,0h1.2s0,0,0,0c0,0,0,0,0,0l-.6-1.9s0,0,0,0,0,0,0,0l-.6,1.9s0,0,0,0Z"/>
    <path class="st2" d="M-527,416.3v-3.5s0,0,0,0h.4s0,0,0,0v3.5s0,0,0,0h-.4s0,0,0,0Z"/>
    <path class="st2" d="M-523.4,412.7h.4s0,0,0,0v3.5s0,0,0,0h-.4s0,0,0,0l-1.6-2.6s0,0,0,0c0,0,0,0,0,0v2.6s0,0,0,0h-.4s0,0,0,0v-3.5s0,0,0,0h.4s0,0,0,0l1.6,2.6s0,0,0,0,0,0,0,0v-2.6s0,0,0,0Z"/>
    <path class="st2" d="M-521.4,416.3s0,0,0,0l1.1-1.7s0,0,0,0l-1.1-1.7s0,0,0,0c0,0,0,0,0,0h.4s0,0,0,0l.8,1.4s0,0,0,0,0,0,0,0l.8-1.4s0,0,0,0h.4s0,0,0,0c0,0,0,0,0,0l-1.1,1.7s0,0,0,0l1.1,1.7s0,0,0,0c0,0,0,0,0,0h-.4s0,0,0,0l-.8-1.4s0,0,0,0,0,0,0,0l-.8,1.4s0,0,0,0h-.4s0,0,0,0Z"/>
  </g>
  <text class="st0" transform="translate(-572.8 637.5)"><tspan x="0" y="0">X MOVE X MEND X MAINTAIN X</tspan></text>
  <text class="st1" transform="translate(-340.2 111)"><tspan class="st3" x="0" y="0">X MOVE X </tspan><tspan class="st2" x="31.4" y="0">MEND</tspan><tspan class="st3" x="50.2" y="0" xml:space="preserve"> X MAINTAIN X</tspan></text>
  <text class="st1" transform="translate(-340.2 121)"><tspan class="st3" x="0" y="0">X MOVE X MEND X </tspan><tspan class="st2" x="57.5" y="0">MAINTAIN</tspan><tspan class="st4" x="89.4" y="0" xml:space="preserve"> X</tspan></text>
  <g id="yprIiB.tif">
    <image id="Layer_0" width="528" height="880" transform="translate(-640 -241.8) scale(.3)" xlink:href="AXIS_Branding_Merch-5.png"/>
  </g>
  <g>
    <path class="st2" d="M-582.8-142.5c0-.1-.1-.2-.3-.2l-3.3.5c-.1,0-.2,0-.3.2l-3.3,10.8c0,.2,0,.3.2.2l2.6-.4c.1,0,.2-.1.3-.2l.3-1.3s0,0,0,0l3.3-.5s0,0,0,0l.3,1.2c0,.1.1.2.3.2l2.6-.4c.1,0,.2,0,.2-.2s0,0,0,0l-3.3-9.9h0ZM-583.8-135.4l-1.9.3c0,0,0,0,0,0l1-3.6s0,0,0,0,0,0,0,0l1,3.3c0,0,0,0,0,.1h0Z"/>
    <path class="st2" d="M-556.4-146.1c0,0,0-.1,0-.1s0,0,0,0c0,0,0,0-.2,0l-2.7.4c-.1,0-.2,0-.3.2l-1.5,3.1s0,0,0,0l-1.5-2.7c0-.1-.1-.2-.3-.1l-2.7.4c0,0-.1,0-.2,0,0,0,0,0,0,.1s0,0,0,.1l2.8,4.7s0,0,0,0l-2.8,5.5s0,0,0,.1,0,0,0,0c0,0,0,0,.2,0l2.7-.4c.1,0,.2,0,.3-.2l1.5-3.1c0,0,0,0,0,0l1.5,2.7c0,.1.2.2.3.1l2.6-.4c0,0,.1,0,.2,0s0,0,0-.1,0,0,0-.1l-2.8-4.7h0c0,0,2.8-5.6,2.8-5.6h0Z"/>
    <path class="st2" d="M-583.8-116.6l-2.4.3c0,0-.1,0-.2,0,0,0,0,.1,0,.2v10.3c0,0,0,.1,0,.2s0,0,.2,0l2.4-.3c0,0,.1,0,.2,0,0,0,0-.1,0-.2v-10.3c0,0,0-.1,0-.2,0,0,0,0-.2,0Z"/>
    <path class="st2" d="M-559.1-115.4c-.6-.1-1-.2-1.1-.2-.6-.1-1-.2-1.3-.3-.3,0-.5-.2-.6-.3s-.2-.3-.2-.4,0-.4.3-.6.5-.3.8-.3c.5,0,.8,0,1.1.2.3.2.4.5.4.8h0c0,0,0,.1,0,.2,0,0,0,0,.2,0l2.4-.3c0,0,.1,0,.2,0,0,0,0-.1,0-.2h0c0-.8-.2-1.4-.6-1.9-.4-.5-.9-.8-1.5-1-.7-.2-1.4-.3-2.2-.1-.8.1-1.5.3-2.1.7-.6.4-1.1.8-1.4,1.4-.3.5-.5,1.1-.5,1.8,0,1,.3,1.7,1,2.1s1.5.7,2.6.9h.5c.5.2.9.2,1.1.3.2,0,.3.2.3.5s0,.4-.2.6-.4.3-.8.3c-.5,0-.9,0-1.2-.2-.3-.2-.5-.4-.5-.7h0c0-.2,0-.2,0-.3,0,0,0,0-.2,0l-2.4.3c0,0-.1,0-.2,0,0,0,0,.1,0,.2v.2c0,.7.2,1.3.5,1.7s.9.8,1.5,1c.7.2,1.4.2,2.3.1.8-.1,1.6-.3,2.2-.7s1.1-.8,1.5-1.4.5-1.2.5-1.9-.2-1.3-.7-1.7c-.4-.4-1-.7-1.6-.8h0Z"/>
  </g>
  <rect class="st7" x="-590.3" y="-77.6" width="8.7" height="34.3"/>
  <rect class="st9" x="-1178.2" y="97.3" width="74.5" height="74.5"/>
  <rect class="st8" x="-1099.8" y="97.3" width="74.5" height="74.5"/>
  <rect class="st10" x="-1178.2" y="175.2" width="74.5" height="74.5"/>
  <rect class="st6" x="-1099.8" y="175.2" width="74.5" height="74.5"/>
</svg>