<?xml version="1.0" encoding="UTF-8"?>
<svg id="Layer_1" data-name="Layer 1" xmlns="http://www.w3.org/2000/svg" viewBox="0 0 292.89 357.27">
  <defs>
    <style>
      .cls-1 {
        fill: #252525;
      }
    </style>
  </defs>
  <path class="cls-1" d="M63.58,35.61c-.36-1.01-1.11-1.44-2.26-1.28l-28.2,3.96c-1.15.16-1.91.8-2.26,1.91L2.8,133.4c-.44,1.57.13,2.24,1.73,2.02l22.74-3.2c1.24-.17,2-.86,2.26-2.05l2.93-10.79c.18-.38.4-.59.67-.62l28.2-3.96c.27-.04.49.11.67.44l2.93,9.96c.27,1.12,1.02,1.59,2.26,1.41l22.74-3.2c1.24-.17,1.86-.75,1.86-1.72,0-.35-.05-.61-.13-.78l-28.06-85.3ZM55.47,96.47l-16.62,2.34c-.45.06-.62-.18-.53-.72l8.38-30.97c.09-.28.22-.43.4-.46.18-.03.31.09.4.34l8.51,28.6c.18.51,0,.8-.53.87Z"/>
  <path class="cls-1" d="M290.88,4.26c.27-.48.4-.9.4-1.25s-.16-.62-.46-.8c-.31-.18-.73-.23-1.26-.15l-22.88,3.21c-1.06.15-1.86.75-2.39,1.8l-13.03,26.97c-.27.39-.53.43-.8.11l-13.03-23.31c-.44-.91-1.24-1.29-2.39-1.13l-23.01,3.23c-.53.08-.95.25-1.26.51-.31.27-.47.58-.47.93s.13.74.4,1.14l24.21,40.35c.18.24.18.51,0,.8l-24.21,47.16c-.27.39-.4.81-.4,1.25,0,.36.15.62.47.8.31.18.73.23,1.26.15l22.88-3.21c1.15-.16,1.95-.76,2.39-1.8l13.17-26.85c.27-.48.53-.52.8-.11l13.17,23.15c.53.9,1.33,1.28,2.39,1.13l22.74-3.2c.53-.07.95-.24,1.26-.51.31-.26.46-.58.46-.93,0-.44-.13-.82-.4-1.14l-24.07-40.38c-.09-.25-.09-.52,0-.8l24.07-47.14Z"/>
  <path class="cls-1" d="M55.07,258.67l-21.01,2.95c-.62.09-1.11.33-1.46.74-.36.41-.53.92-.53,1.54v89.11c0,.62.18,1.08.53,1.39.35.31.84.41,1.46.33l21.01-2.95c.62-.09,1.11-.33,1.46-.74.35-.4.53-.92.53-1.54v-89.11c0-.62-.18-1.08-.53-1.39-.36-.3-.84-.41-1.46-.33Z"/>
  <path class="cls-1" d="M268.07,269.3c-5.54-.86-8.67-1.38-9.38-1.54-5.14-.87-8.96-1.64-11.44-2.32-2.48-.67-4.32-1.47-5.52-2.42-1.2-.94-1.8-2.21-1.8-3.8,0-2.04.82-3.75,2.46-5.13,1.64-1.38,3.88-2.27,6.72-2.67,4.08-.57,7.31.06,9.71,1.89,2.39,1.84,3.59,4.08,3.59,6.74v.13c0,.62.18,1.09.53,1.39.35.31.84.41,1.46.33l20.61-2.9c.62-.09,1.11-.33,1.46-.74.35-.4.53-.92.53-1.54v-1.2c0-6.03-1.62-11.17-4.85-15.41-3.24-4.24-7.67-7.25-13.3-9.04-5.63-1.78-11.9-2.18-18.82-1.21-6.56.92-12.48,2.91-17.75,5.95-5.28,3.05-9.42,6.93-12.44,11.66-3.02,4.73-4.52,9.88-4.52,15.47,0,8.42,2.97,14.43,8.91,18.03,5.94,3.6,13.3,6.11,22.08,7.54l3.86.52c4.7.76,7.93,1.5,9.71,2.23,1.77.73,2.66,2.07,2.66,4.02,0,1.69-.71,3.31-2.13,4.89-1.42,1.57-3.77,2.59-7.05,3.05-4.35.61-7.83.15-10.44-1.39-2.62-1.54-3.92-3.55-3.92-6.03v-.8c0-.62-.18-1.08-.53-1.39-.36-.3-.84-.41-1.46-.33l-20.61,2.9c-.62.09-1.11.33-1.46.74-.36.41-.53.92-.53,1.54v1.86c0,5.94,1.53,10.96,4.59,15.05,3.06,4.09,7.38,6.97,12.97,8.62,5.59,1.66,12.1,1.96,19.55.91,7.18-1.01,13.48-3.05,18.89-6.11,5.41-3.06,9.62-6.96,12.63-11.68,3.01-4.72,4.52-10.06,4.52-16s-1.86-11.06-5.59-14.84c-3.72-3.78-8.36-6.09-13.9-6.96Z"/>
</svg>