<?xml version="1.0" encoding="UTF-8"?>
<svg id="Layer_1" xmlns="http://www.w3.org/2000/svg" version="1.1" viewBox="0 0 292.9 357.3">
  <!-- Generator: Adobe Illustrator 30.0.0, SVG Export Plug-In . SVG Version: 2.1.1 Build 123)  -->
  <defs>
    <style>
      .st0 {
        fill: #252525;
      }
    </style>
  </defs>
  <path class="st0" d="M63.6,35.6c-.4-1-1.1-1.4-2.3-1.3l-28.2,4c-1.1.2-1.9.8-2.3,1.9L2.8,133.4c-.4,1.6.1,2.2,1.7,2l22.7-3.2c1.2-.2,2-.9,2.3-2.1l2.9-10.8c.2-.4.4-.6.7-.6l28.2-4c.3,0,.5.1.7.4l2.9,10c.3,1.1,1,1.6,2.3,1.4l22.7-3.2c1.2-.2,1.9-.8,1.9-1.7s0-.6-.1-.8l-28.1-85.3h0ZM55.5,96.5l-16.6,2.3c-.5,0-.6-.2-.5-.7l8.4-31c0-.3.2-.4.4-.5s.3,0,.4.3l8.5,28.6c.2.5,0,.8-.5.9h0Z"/>
  <path class="st0" d="M290.9,4.3c.3-.5.4-.9.4-1.2s-.2-.6-.5-.8c-.3-.2-.7-.2-1.3-.2l-22.9,3.2c-1.1.2-1.9.8-2.4,1.8l-13,27c-.3.4-.5.4-.8.1l-13-23.3c-.4-.9-1.2-1.3-2.4-1.1l-23,3.2c-.5,0-.9.2-1.3.5-.3.3-.5.6-.5.9s.1.7.4,1.1l24.2,40.3c.2.2.2.5,0,.8l-24.2,47.2c-.3.4-.4.8-.4,1.2s.1.6.5.8c.3.2.7.2,1.3.2l22.9-3.2c1.1-.2,1.9-.8,2.4-1.8l13.2-26.8c.3-.5.5-.5.8-.1l13.2,23.2c.5.9,1.3,1.3,2.4,1.1l22.7-3.2c.5,0,1-.2,1.3-.5.3-.3.5-.6.5-.9s-.1-.8-.4-1.1l-24.1-40.4c0-.2,0-.5,0-.8l24.1-47.1h0Z"/>
  <path class="st0" d="M55.1,258.7l-21,3c-.6,0-1.1.3-1.5.7-.4.4-.5.9-.5,1.5v89.1c0,.6.2,1.1.5,1.4.3.3.8.4,1.5.3l21-3c.6,0,1.1-.3,1.5-.7.3-.4.5-.9.5-1.5v-89.1c0-.6-.2-1.1-.5-1.4-.4-.3-.8-.4-1.5-.3Z"/>
  <path class="st0" d="M268.1,269.3c-5.5-.9-8.7-1.4-9.4-1.5-5.1-.9-9-1.6-11.4-2.3-2.5-.7-4.3-1.5-5.5-2.4-1.2-.9-1.8-2.2-1.8-3.8s.8-3.8,2.5-5.1,3.9-2.3,6.7-2.7c4.1-.6,7.3,0,9.7,1.9,2.4,1.8,3.6,4.1,3.6,6.7h0c0,.8.2,1.2.5,1.5.4.3.8.4,1.5.3l20.6-2.9c.6,0,1.1-.3,1.5-.7.4-.4.5-.9.5-1.5v-1.2c0-6-1.6-11.2-4.9-15.4-3.2-4.2-7.7-7.2-13.3-9-5.6-1.8-11.9-2.2-18.8-1.2-6.6.9-12.5,2.9-17.8,5.9-5.3,3.1-9.4,6.9-12.4,11.7-3,4.7-4.5,9.9-4.5,15.5,0,8.4,3,14.4,8.9,18s13.3,6.1,22.1,7.5l3.9.5c4.7.8,7.9,1.5,9.7,2.2,1.8.7,2.7,2.1,2.7,4s-.7,3.3-2.1,4.9c-1.4,1.6-3.8,2.6-7.1,3-4.4.6-7.8.1-10.4-1.4-2.6-1.5-3.9-3.5-3.9-6v-.8c0-.6-.2-1.1-.5-1.4-.4-.3-.8-.4-1.5-.3l-20.6,2.9c-.6,0-1.1.3-1.5.7-.4.4-.5.9-.5,1.5v1.9c0,5.9,1.5,11,4.6,15s7.4,7,13,8.6c5.6,1.7,12.1,2,19.6.9,7.2-1,13.5-3,18.9-6.1,5.4-3.1,9.6-7,12.6-11.7s4.5-10.1,4.5-16-1.9-11.1-5.6-14.8c-3.7-3.8-8.4-6.1-13.9-7h0Z"/>
</svg>