<?xml version="1.0" encoding="UTF-8"?>
<svg id="Layer_1" data-name="Layer 1" xmlns="http://www.w3.org/2000/svg" viewBox="0 0 292.89 357.27">
  <path d="M64.91,125.2l-2.93-9.96c-.18-.33-.4-.48-.67-.44l-28.2,3.96c-.27.04-.49.25-.67.62l-2.93,10.79c-.27,1.19-1.02,1.87-2.26,2.05l-22.74,3.2c-1.6.22-2.17-.45-1.73-2.02L30.87,40.21c.35-1.11,1.11-1.75,2.26-1.91l28.2-3.96c1.15-.16,1.91.26,2.26,1.28l28.06,85.3c.09.17.13.43.13.78,0,.98-.62,1.55-1.86,1.72l-22.74,3.2c-1.24.17-2-.29-2.26-1.41ZM38.85,98.8l16.62-2.34c.53-.08.71-.37.53-.87l-8.51-28.6c-.09-.25-.22-.37-.4-.34-.18.03-.31.18-.4.46l-8.38,30.97c-.09.54.09.79.53.72Z"/>
  <path d="M210.75,105.9c-.31-.18-.47-.44-.47-.8,0-.44.13-.86.4-1.25l24.21-47.16c.18-.29.18-.56,0-.8l-24.21-40.35c-.27-.41-.4-.79-.4-1.14s.15-.66.47-.93c.31-.26.73-.43,1.26-.51l23.01-3.23c1.15-.16,1.95.21,2.39,1.13l13.03,23.31c.27.32.53.28.8-.11l13.03-26.97c.53-1.05,1.33-1.65,2.39-1.8l22.88-3.21c.53-.07.95-.02,1.26.15.31.18.46.45.46.8s-.13.77-.4,1.25l-24.07,47.14c-.09.28-.09.54,0,.8l24.07,40.38c.27.32.4.7.4,1.14,0,.36-.16.67-.46.93-.31.27-.73.44-1.26.51l-22.74,3.2c-1.07.15-1.86-.22-2.39-1.13l-13.17-23.15c-.27-.41-.53-.37-.8.11l-13.17,26.85c-.45,1.04-1.24,1.64-2.39,1.8l-22.88,3.21c-.53.08-.95.02-1.26-.15Z"/>
  <path d="M32.59,354.4c-.36-.3-.53-.77-.53-1.39v-89.11c0-.62.18-1.13.53-1.54.35-.4.84-.65,1.46-.74l21.01-2.95c.62-.09,1.11.02,1.46.33.35.31.53.77.53,1.39v89.11c0,.62-.18,1.13-.53,1.54-.36.41-.84.65-1.46.74l-21.01,2.95c-.62.09-1.11-.02-1.46-.33Z"/>
  <path d="M231.96,323.98c-5.58-1.65-9.91-4.53-12.97-8.62-3.06-4.09-4.59-9.11-4.59-15.05v-1.86c0-.62.18-1.13.53-1.54.35-.4.84-.65,1.46-.74l20.61-2.9c.62-.09,1.11.02,1.46.33.35.31.53.77.53,1.39v.8c0,2.48,1.31,4.49,3.92,6.03,2.61,1.54,6.09,2,10.44,1.39,3.28-.46,5.63-1.48,7.05-3.05,1.42-1.57,2.13-3.2,2.13-4.89,0-1.95-.89-3.29-2.66-4.02-1.78-.72-5.01-1.47-9.71-2.23l-3.86-.52c-8.78-1.43-16.14-3.94-22.08-7.54-5.94-3.6-8.91-9.61-8.91-18.03,0-5.59,1.51-10.74,4.52-15.47,3.01-4.72,7.16-8.61,12.44-11.66,5.27-3.05,11.19-5.03,17.75-5.95,6.92-.97,13.19-.57,18.82,1.21,5.63,1.78,10.06,4.79,13.3,9.04,3.24,4.25,4.85,9.38,4.85,15.41v1.2c0,.62-.18,1.14-.53,1.54-.36.41-.84.65-1.46.74l-20.61,2.9c-.62.09-1.11-.02-1.46-.33-.36-.3-.53-.77-.53-1.39v-.13c0-2.66-1.2-4.91-3.59-6.74-2.39-1.84-5.63-2.47-9.71-1.89-2.84.4-5.08,1.29-6.72,2.67-1.64,1.38-2.46,3.1-2.46,5.13,0,1.6.6,2.86,1.8,3.8,1.2.94,3.04,1.75,5.52,2.42,2.48.67,6.29,1.44,11.44,2.32.71.17,3.83.68,9.38,1.54,5.54.86,10.17,3.18,13.9,6.96,3.72,3.78,5.59,8.72,5.59,14.84s-1.51,11.27-4.52,16c-3.01,4.73-7.23,8.62-12.63,11.68-5.41,3.07-11.7,5.1-18.89,6.11-7.45,1.05-13.96.74-19.55-.91Z"/>
</svg>